{
  "accessors": [
    {
      "bufferView": 2,
      "componentType": 5126,
      "count": 6430,
      "max": [
        1.0313469171524048,
        0.7303977012634277,
        0.29122602939605713
      ],
      "min": [
        -1.0313469171524048,
        -3.927398681640625,
        -1.0596319437026978
      ],
      "type": "VEC3"
    },
    {
      "bufferView": 2,
      "byteOffset": 77160,
      "componentType": 5126,
      "count": 6430,
      "max": [
        1.0,
        1.0,
        1.0
      ],
      "min": [
        -1.0,
        -1.0,
        -1.0
      ],
      "type": "VEC3"
    },
    {
      "bufferView": 1,
      "componentType": 5126,
      "count": 6430,
      "max": [
        0.9589459896087646,
        0.9478870630264282
      ],
      "min": [
        0.05213749408721924,
        0.5541371703147888
      ],
      "type": "VEC2"
    },
    {
      "bufferView": 0,
      "componentType": 5125,
      "count": 10050,
      "type": "SCALAR"
    },
    {
      "bufferView": 2,
      "byteOffset": 154320,
      "componentType": 5126,
      "count": 1286,
      "max": [
        0.9283803701400757,
        0.2102515548467636,
        1.846695899963379
      ],
      "min": [
        -0.9283803701400757,
        -0.2150934636592865,
        -0.0011032274924218655
      ],
      "type": "VEC3"
    },
    {
      "bufferView": 2,
      "byteOffset": 169752,
      "componentType": 5126,
      "count": 1286,
      "max": [
        1.0,
        1.0,
        0.9999082088470459
      ],
      "min": [
        -0.9999635219573975,
        -0.9999693036079407,
        -1.0
      ],
      "type": "VEC3"
    },
    {
      "bufferView": 1,
      "byteOffset": 51440,
      "componentType": 5126,
      "count": 1286,
      "max": [
        0.9184450507164001,
        0.9031661748886108
      ],
      "min": [
        0.5686427354812622,
        0.3415824770927429
      ],
      "type": "VEC2"
    },
    {
      "bufferView": 0,
      "byteOffset": 40200,
      "componentType": 5125,
      "count": 1938,
      "type": "SCALAR"
    },
    {
      "bufferView": 2,
      "byteOffset": 185184,
      "componentType": 5126,
      "count": 5022,
      "max": [
        11.477001190185547,
        0.6820000410079956,
        0.0
      ],
      "min": [
        0.0,
        -2.2300000190734863,
        0.0
      ],
      "type": "VEC3"
    },
    {
      "bufferView": 2,
      "byteOffset": 245448,
      "componentType": 5126,
      "count": 5022,
      "max": [
        0.0,
        0.0,
        1.0
      ],
      "min": [
        0.0,
        0.0,
        1.0
      ],
      "type": "VEC3"
    },
    {
      "bufferView": 1,
      "byteOffset": 61728,
      "componentType": 5126,
      "count": 5022,
      "max": [
        1.0,
        0.0
      ],
      "min": [
        0.0,
        0.0
      ],
      "type": "VEC2"
    },
    {
      "bufferView": 0,
      "byteOffset": 47952,
      "componentType": 5125,
      "count": 14760,
      "type": "SCALAR"
    },
    {
      "bufferView": 2,
      "byteOffset": 305712,
      "componentType": 5126,
      "count": 6491,
      "max": [
        4.406571865081787,
        3.007503032684326,
        1.6123842000961304
      ],
      "min": [
        -4.406571865081787,
        -3.4484634399414063,
        -1.5887463092803955
      ],
      "type": "VEC3"
    },
    {
      "bufferView": 2,
      "byteOffset": 383604,
      "componentType": 5126,
      "count": 6491,
      "max": [
        1.0,
        0.9987382292747498,
        1.0
      ],
      "min": [
        -1.0,
        -1.0,
        -0.9993789196014404
      ],
      "type": "VEC3"
    },
    {
      "bufferView": 1,
      "byteOffset": 101904,
      "componentType": 5126,
      "count": 6491,
      "max": [
        0.938967227935791,
        0.9593719244003296
      ],
      "min": [
        0.08382537961006165,
        0.003562331199645996
      ],
      "type": "VEC2"
    },
    {
      "bufferView": 0,
      "byteOffset": 106992,
      "componentType": 5125,
      "count": 9909,
      "type": "SCALAR"
    }
  ],
  "asset": {
    "extras": {
      "author": "Deedz (https://sketchfab.com/Deedz)",
      "license": "CC-BY-4.0 (http://creativecommons.org/licenses/by/4.0/)",
      "source": "https://sketchfab.com/3d-models/space-ship-a37b7b07441e4771bd94f959bb1d1e53",
      "title": "SPACE SHIP"
    },
    "generator": "Sketchfab-12.66.0",
    "version": "2.0"
  },
  "bufferViews": [
    {
      "buffer": 0,
      "byteLength": 146628,
      "name": "floatBufferViews",
      "target": 34963
    },
    {
      "buffer": 0,
      "byteLength": 153832,
      "byteOffset": 146628,
      "byteStride": 8,
      "name": "floatBufferViews",
      "target": 34962
    },
    {
      "buffer": 0,
      "byteLength": 461496,
      "byteOffset": 300460,
      "byteStride": 12,
      "name": "floatBufferViews",
      "target": 34962
    }
  ],
  "buffers": [
    {
      "byteLength": 761956,
      "uri": "scene.bin"
    }
  ],
  "materials": [
    {
      "doubleSided": true,
      "name": "Use_this_car_and_character_for_the_scale_of_your_own_vehicle__0",
      "pbrMetallicRoughness": {
        "metallicFactor": 0.0,
        "roughnessFactor": 0.6
      }
    },
    {
      "doubleSided": true,
      "name": "Submission_Diffuse_Shader",
      "pbrMetallicRoughness": {
        "baseColorFactor": [
          0.025191469456802475,
          0.016686729008595517,
          0.023678794046019132,
          1.0
        ],
        "metallicFactor": 0.0,
        "roughnessFactor": 0.989088799
      }
    }
  ],
  "meshes": [
    {
      "name": "ReferenceCar - delete_Submission_Diffuse_Shader_0",
      "primitives": [
        {
          "attributes": {
            "NORMAL": 1,
            "POSITION": 0,
            "TEXCOORD_0": 2
          },
          "indices": 3,
          "material": 1,
          "mode": 4
        }
      ]
    },
    {
      "name": "ReferenceCharacter - delete_Submission_Diffuse_Shader_0",
      "primitives": [
        {
          "attributes": {
            "NORMAL": 5,
            "POSITION": 4,
            "TEXCOORD_0": 6
          },
          "indices": 7,
          "material": 1,
          "mode": 4
        }
      ]
    },
    {
      "name": "Use this car and character for the scale of your own vehicle__0",
      "primitives": [
        {
          "attributes": {
            "NORMAL": 9,
            "POSITION": 8,
            "TEXCOORD_0": 10
          },
          "indices": 11,
          "material": 0,
          "mode": 4
        }
      ]
    },
    {
      "name": "Cube_Submission_Diffuse_Shader_0",
      "primitives": [
        {
          "attributes": {
            "NORMAL": 13,
            "POSITION": 12,
            "TEXCOORD_0": 14
          },
          "indices": 15,
          "material": 1,
          "mode": 4
        }
      ]
    }
  ],
  "nodes": [
    {
      "children": [
        1
      ],
      "matrix": [
        1.0,
        0.0,
        0.0,
        0.0,
        0.0,
        2.220446049250313e-16,
        -1.0,
        0.0,
        0.0,
        1.0,
        2.220446049250313e-16,
        0.0,
        0.0,
        0.0,
        0.0,
        1.0
      ],
      "name": "Sketchfab_model"
    },
    {
      "children": [
        2
      ],
      "matrix": [
        1.0,
        0.0,
        0.0,
        0.0,
        0.0,
        0.0,
        1.0,
        0.0,
        0.0,
        -1.0,
        0.0,
        0.0,
        0.0,
        0.0,
        0.0,
        1.0
      ],
      "name": "8ecd11bf1ffd474d826ce30de6bf5685.fbx"
    },
    {
      "children": [
        3,
        5,
        7,
        9
      ],
      "name": "RootNode"
    },
    {
      "children": [
        4
      ],
      "matrix": [
        100.0,
        0.0,
        0.0,
        0.0,
        0.0,
        -1.629206793918314e-05,
        -99.99999999999868,
        0.0,
        0.0,
        99.99999999999868,
        -1.629206793918314e-05,
        0.0,
        0.0,
        105.88023376464844,
        -165.249755859375,
        1.0
      ],
      "name": "ReferenceCar - delete"
    },
    {
      "mesh": 0,
      "name": "ReferenceCar - delete_Submission_Diffuse_Shader_0"
    },
    {
      "children": [
        6
      ],
      "matrix": [
        1.9470718848335622e-05,
        0.0,
        -99.99999999999811,
        0.0,
        -99.99999999999679,
        -1.6292067961387602e-05,
        -1.9470718859437852e-05,
        0.0,
        -1.6292067955836487e-05,
        99.99999999999869,
        -3.197442310920451e-12,
        0.0,
        -281.1608581542969,
        0.0,
        1.2289930964470841e-05,
        1.0
      ],
      "name": "ReferenceCharacter - delete"
    },
    {
      "mesh": 1,
      "name": "ReferenceCharacter - delete_Submission_Diffuse_Shader_0"
    },
    {
      "children": [
        8
      ],
      "matrix": [
        1.9470718848335622e-05,
        0.0,
        -99.99999999999811,
        0.0,
        -99.99999999999679,
        -1.6292067961387602e-05,
        -1.9470718859437852e-05,
        0.0,
        -1.6292067955836487e-05,
        99.99999999999869,
        -3.197442310920451e-12,
        0.0,
        254.63198852539063,
        0.0,
        427.69378662109375,
        1.0
      ],
      "name": "Use this car and character for the scale of your own vehicle"
    },
    {
      "mesh": 2,
      "name": "Use this car and character for the scale of your own vehicle__0"
    },
    {
      "children": [
        10
      ],
      "matrix": [
        100.0,
        0.0,
        0.0,
        0.0,
        0.0,
        -1.629206793918314e-05,
        -99.99999999999868,
        0.0,
        0.0,
        99.99999999999868,
        -1.629206793918314e-05,
        0.0,
        0.0,
        100.0,
        0.0,
        1.0
      ],
      "name": "Cube"
    },
    {
      "mesh": 3,
      "name": "Cube_Submission_Diffuse_Shader_0"
    }
  ],
  "scene": 0,
  "scenes": [
    {
      "name": "Sketchfab_Scene",
      "nodes": [
        0
      ]
    }
  ]
}
