solid space ship
facet normal -0.0 1.0 -0.0
outer loop
vertex 4.15995877913739 19.7706095395817 6.48635155169217
vertex 10.0735587791373 19.7706095395817 12.7679999999999
vertex 10.0735587791373 19.7706095395817 6.48635155169216
endloop
endfacet
facet normal -0.0 1.0 -0.0
outer loop
vertex 10.0735587791373 19.7706095395817 12.7679999999999
vertex 4.15995877913739 19.7706095395817 6.48635155169217
vertex 4.15995877913739 19.7706095395817 8.9935999999999
endloop
endfacet
facet normal -0.0 -0.487386641304301 0.873186269863489
outer loop
vertex 4.15995877913739 -44.2463504604183 -1.09554569860393e-013
vertex -9.76836122086266 -35.5785957803258 4.83808322116685
vertex -9.76836122086266 -44.2463504604183 -1.09554569860393e-013
endloop
endfacet
facet normal -0.0 -0.487386641304301 0.873186269863489
outer loop
vertex -9.76836122086266 -35.5785957803258 4.83808322116685
vertex 4.15995877913739 -44.2463504604183 -1.09554569860393e-013
vertex 4.15995877913739 -35.5785957803258 4.83808322116685
endloop
endfacet
facet normal -0.0 -0.4873866413043 0.873186269863489
outer loop
vertex 2.95259877913722 -35.2139525907676 4.18480018150578
vertex -8.55428122086275 -32.4518483020041 5.72652475814521
vertex -8.55428122086275 -35.2139525907676 4.18480018150578
endloop
endfacet
facet normal -0.0 -0.4873866413043 0.873186269863489
outer loop
vertex -8.55428122086275 -32.4518483020041 5.72652475814521
vertex 2.95259877913722 -35.2139525907676 4.18480018150578
vertex 2.95259877913722 -32.4518483020041 5.72652475814521
endloop
endfacet
facet normal -6.14207244619282e-020 0.873186269863488 0.487386641304302
outer loop
vertex -9.76836122086266 -35.5785957803258 4.83808322116685
vertex -8.55428122086275 -35.2139525907676 4.18480018150578
vertex -9.76836122086266 -35.2139525907676 4.18480018150578
endloop
endfacet
facet normal -6.14207244619282e-020 0.873186269863488 0.487386641304302
outer loop
vertex -8.55428122086275 -35.2139525907676 4.18480018150578
vertex -9.76836122086266 -35.5785957803258 4.83808322116685
vertex 2.95259877913722 -35.2139525907676 4.18480018150578
endloop
endfacet
facet normal -6.14207244619282e-020 0.873186269863488 0.487386641304302
outer loop
vertex 2.95259877913722 -35.2139525907676 4.18480018150578
vertex -9.76836122086266 -35.5785957803258 4.83808322116685
vertex 4.15995877913739 -35.2139525907676 4.18480018150578
endloop
endfacet
facet normal -6.14207244619282e-020 0.873186269863488 0.487386641304302
outer loop
vertex 4.15995877913739 -35.2139525907676 4.18480018150578
vertex -9.76836122086266 -35.5785957803258 4.83808322116685
vertex 4.15995877913739 -35.5785957803258 4.83808322116685
endloop
endfacet
facet normal 9.49229378047914e-020 -0.873186269863424 -0.487386641304417
outer loop
vertex 4.15995877913739 -32.8164914915624 6.37980779780627
vertex 2.95259877913722 -32.4518483020041 5.72652475814521
vertex 4.15995877913739 -32.4518483020041 5.72652475814521
endloop
endfacet
facet normal 9.49229378047914e-020 -0.873186269863424 -0.487386641304417
outer loop
vertex 2.95259877913722 -32.4518483020041 5.72652475814521
vertex 4.15995877913739 -32.8164914915624 6.37980779780627
vertex -8.55428122086275 -32.4518483020041 5.72652475814521
endloop
endfacet
facet normal 9.49229378047914e-020 -0.873186269863424 -0.487386641304417
outer loop
vertex -8.55428122086275 -32.4518483020041 5.72652475814521
vertex 4.15995877913739 -32.8164914915624 6.37980779780627
vertex -9.76836122086266 -32.4518483020041 5.72652475814521
endloop
endfacet
facet normal 9.49229378047914e-020 -0.873186269863424 -0.487386641304417
outer loop
vertex -9.76836122086266 -32.4518483020041 5.72652475814521
vertex 4.15995877913739 -32.8164914915624 6.37980779780627
vertex -9.76836122086266 -32.8164914915624 6.37980779780627
endloop
endfacet
facet normal -1.0 0.0 0.0
outer loop
vertex -8.55428122086275 -32.4518483020041 5.72652475814521
vertex -8.55428122086275 -19.6368083020041 3.9255647581452
vertex -8.55428122086275 -35.2139525907676 4.18480018150578
endloop
endfacet
facet normal -1.0 0.0 0.0
outer loop
vertex -8.55428122086275 -19.6368083020041 3.9255647581452
vertex -8.55428122086275 -32.4518483020041 5.72652475814521
vertex -8.55428122086275 -19.6368083020041 5.72652475814521
endloop
endfacet
facet normal -0.0 0.0166397336651444 0.999861550047582
outer loop
vertex -8.55428122086275 -35.2139525907676 4.18480018150578
vertex -9.76836122086266 -19.6368083020041 3.9255647581452
vertex -9.76836122086266 -35.2139525907676 4.18480018150578
endloop
endfacet
facet normal -0.0 0.0166397336651444 0.999861550047582
outer loop
vertex -9.76836122086266 -19.6368083020041 3.9255647581452
vertex -8.55428122086275 -35.2139525907676 4.18480018150578
vertex -8.55428122086275 -19.6368083020041 3.9255647581452
endloop
endfacet
facet normal 1.0 -0.0 -0.0
outer loop
vertex 2.95259877913722 -19.6368083020041 4.18480018150578
vertex 2.95259877913722 -32.4518483020041 5.72652475814521
vertex 2.95259877913722 -35.2139525907676 4.18480018150578
endloop
endfacet
facet normal 1.0 -0.0 -0.0
outer loop
vertex 2.95259877913722 -32.4518483020041 5.72652475814521
vertex 2.95259877913722 -19.6368083020041 4.18480018150578
vertex 2.95259877913722 -19.6368083020041 5.72652475814521
endloop
endfacet
facet normal -0.0 1.81032314413501e-016 1.0
outer loop
vertex 4.15995877913739 -35.2139525907676 4.18480018150578
vertex 2.95259877913722 -19.6368083020041 4.18480018150578
vertex 2.95259877913722 -35.2139525907676 4.18480018150578
endloop
endfacet
facet normal -0.0 1.81032314413501e-016 1.0
outer loop
vertex 2.95259877913722 -19.6368083020041 4.18480018150578
vertex 4.15995877913739 -35.2139525907676 4.18480018150578
vertex 4.15995877913739 -19.6368083020041 4.18480018150578
endloop
endfacet
facet normal 7.43400093426104e-017 4.36142476869822e-017 -1.0
outer loop
vertex 54.1221891948773 19.7706095395817 -9.91610368595773e-014
vertex 1.07995877913727 3.73668953958161 -1.09693163716652e-013
vertex 1.07995877913727 19.7706095395817 -1.09693163716652e-013
endloop
endfacet
facet normal 7.43400093426104e-017 4.36142476869822e-017 -1.0
outer loop
vertex 1.07995877913727 3.73668953958161 -1.09693163716652e-013
vertex 54.1221891948773 19.7706095395817 -9.91610368595773e-014
vertex 4.15995877913739 -4.63643046041832 -1.15618625784464e-013
endloop
endfacet
facet normal 7.43400093426104e-017 4.36142476869822e-017 -1.0
outer loop
vertex 4.15995877913739 -4.63643046041832 -1.15618625784464e-013
vertex 54.1221891948773 19.7706095395817 -9.91610368595773e-014
vertex 10.0735587791373 -4.63643046041832 -1.11512754585874e-013
endloop
endfacet
facet normal 7.43400093426104e-017 4.36142476869822e-017 -1.0
outer loop
vertex -7.53055144545504 19.7706095395817 -1.09554569860393e-013
vertex -15.4870812208628 -4.63867046041833 -1.09554569860393e-013
vertex -59.5164714454551 19.7706095395817 -1.09554569860393e-013
endloop
endfacet
facet normal 7.43400093426104e-017 4.36142476869822e-017 -1.0
outer loop
vertex -15.4870812208628 -4.63867046041833 -1.09554569860393e-013
vertex -7.53055144545504 19.7706095395817 -1.09554569860393e-013
vertex -9.76836122086266 -4.63867046041833 -1.09554569860393e-013
endloop
endfacet
facet normal 7.43400093426104e-017 4.36142476869822e-017 -1.0
outer loop
vertex -9.76836122086266 -4.63867046041833 -1.09554569860393e-013
vertex -7.53055144545504 19.7706095395817 -1.09554569860393e-013
vertex -9.76836122086266 -44.2463504604183 -1.09554569860393e-013
endloop
endfacet
facet normal 7.43400093426104e-017 4.36142476869822e-017 -1.0
outer loop
vertex -9.76836122086266 -44.2463504604183 -1.09554569860393e-013
vertex -7.53055144545504 19.7706095395817 -1.09554569860393e-013
vertex -7.53055144545504 3.73668953958161 -1.09554569860393e-013
endloop
endfacet
facet normal 7.43400093426104e-017 4.36142476869822e-017 -1.0
outer loop
vertex -9.76836122086266 -44.2463504604183 -1.09554569860393e-013
vertex -7.53055144545504 3.73668953958161 -1.09554569860393e-013
vertex 4.15995877913739 -44.2463504604183 -1.09554569860393e-013
endloop
endfacet
facet normal 7.43400093426104e-017 4.36142476869822e-017 -1.0
outer loop
vertex 4.15995877913739 -44.2463504604183 -1.09554569860393e-013
vertex -7.53055144545504 3.73668953958161 -1.09554569860393e-013
vertex -3.16589160071711 3.73668953958161 -1.09554569860393e-013
endloop
endfacet
facet normal 7.43400093426104e-017 4.36142476869822e-017 -1.0
outer loop
vertex 4.15995877913739 -44.2463504604183 -1.09554569860393e-013
vertex -3.16589160071711 3.73668953958161 -1.09554569860393e-013
vertex 1.07995877913727 3.73668953958161 -1.09693163716652e-013
endloop
endfacet
facet normal 7.43400093426104e-017 4.36142476869822e-017 -1.0
outer loop
vertex 4.15995877913739 -44.2463504604183 -1.09554569860393e-013
vertex 1.07995877913727 3.73668953958161 -1.09693163716652e-013
vertex 4.15995877913739 -4.63643046041832 -1.15618625784464e-013
endloop
endfacet
facet normal -0.0 1.0 -0.0
outer loop
vertex 1.07995877913727 3.73668953958161 -1.09693163716652e-013
vertex 1.00480272983443 3.73668953958161 3.20028631844296
vertex 1.07995877913727 3.73668953958161 3.77115318903066
endloop
endfacet
facet normal -0.0 1.0 -0.0
outer loop
vertex 1.00480272983443 3.73668953958161 3.20028631844296
vertex 1.07995877913727 3.73668953958161 -1.09693163716652e-013
vertex 0.573450637965674 3.73668953958161 2.15891024809561
endloop
endfacet
facet normal -0.0 1.0 -0.0
outer loop
vertex 0.573450637965674 3.73668953958161 2.15891024809561
vertex 1.07995877913727 3.73668953958161 -1.09693163716652e-013
vertex -0.112731447913913 3.73668953958161 1.2646603433881
endloop
endfacet
facet normal -0.0 1.0 -0.0
outer loop
vertex -0.112731447913913 3.73668953958161 1.2646603433881
vertex 1.07995877913727 3.73668953958161 -1.09693163716652e-013
vertex -1.00698135262134 3.73668953958161 0.578478257508412
endloop
endfacet
facet normal -0.0 1.0 -0.0
outer loop
vertex -1.00698135262134 3.73668953958161 0.578478257508412
vertex 1.07995877913727 3.73668953958161 -1.09693163716652e-013
vertex -2.04835742296872 3.73668953958161 0.147126165639738
endloop
endfacet
facet normal -0.0 1.0 -0.0
outer loop
vertex -2.04835742296872 3.73668953958161 0.147126165639738
vertex 1.07995877913727 3.73668953958161 -1.09693163716652e-013
vertex -3.16589160071711 3.73668953958161 -1.09554569860393e-013
endloop
endfacet
facet normal 0.130526192220048 0.0 -0.991444861373811
outer loop
vertex -2.04835742296872 24.4706095395817 0.147126165639738
vertex -3.16589160071711 3.73668953958161 -1.09554569860393e-013
vertex -3.16589160071711 24.4706095395817 -1.09554569860393e-013
endloop
endfacet
facet normal 0.130526192220048 0.0 -0.991444861373811
outer loop
vertex -3.16589160071711 3.73668953958161 -1.09554569860393e-013
vertex -2.04835742296872 24.4706095395817 0.147126165639738
vertex -2.04835742296872 3.73668953958161 0.147126165639738
endloop
endfacet
facet normal 0.382683432365082 0.0 -0.92387953251129
outer loop
vertex -1.00698135262134 24.4706095395817 0.578478257508412
vertex -2.04835742296872 3.73668953958161 0.147126165639738
vertex -2.04835742296872 24.4706095395817 0.147126165639738
endloop
endfacet
facet normal 0.382683432365082 0.0 -0.92387953251129
outer loop
vertex -2.04835742296872 3.73668953958161 0.147126165639738
vertex -1.00698135262134 24.4706095395817 0.578478257508412
vertex -1.00698135262134 3.73668953958161 0.578478257508412
endloop
endfacet
facet normal 0.608761429008758 0.0 -0.793353340291207
outer loop
vertex -0.112731447913913 24.4706095395817 1.2646603433881
vertex -1.00698135262134 3.73668953958161 0.578478257508412
vertex -1.00698135262134 24.4706095395817 0.578478257508412
endloop
endfacet
facet normal 0.608761429008758 0.0 -0.793353340291207
outer loop
vertex -1.00698135262134 3.73668953958161 0.578478257508412
vertex -0.112731447913913 24.4706095395817 1.2646603433881
vertex -0.112731447913913 3.73668953958161 1.2646603433881
endloop
endfacet
facet normal 0.793353340291277 -0.0 -0.608761429008666
outer loop
vertex -0.112731447913913 24.4706095395817 1.2646603433881
vertex 0.573450637965674 3.73668953958161 2.15891024809561
vertex -0.112731447913913 3.73668953958161 1.2646603433881
endloop
endfacet
facet normal 0.793353340291277 -0.0 -0.608761429008666
outer loop
vertex 0.573450637965674 3.73668953958161 2.15891024809561
vertex -0.112731447913913 24.4706095395817 1.2646603433881
vertex 0.573450637965674 24.4706095395817 2.15891024809561
endloop
endfacet
facet normal 0.92387953251126 -0.0 -0.382683432365154
outer loop
vertex 0.573450637965674 24.4706095395817 2.15891024809561
vertex 1.00480272983443 3.73668953958161 3.20028631844296
vertex 0.573450637965674 3.73668953958161 2.15891024809561
endloop
endfacet
facet normal 0.92387953251126 -0.0 -0.382683432365154
outer loop
vertex 1.00480272983443 3.73668953958161 3.20028631844296
vertex 0.573450637965674 24.4706095395817 2.15891024809561
vertex 1.00480272983443 24.4706095395817 3.20028631844296
endloop
endfacet
facet normal 0.991444861373796 -0.0 -0.130526192220164
outer loop
vertex 1.00480272983443 24.4706095395817 3.20028631844296
vertex 1.07995877913727 3.73668953958161 3.77115318903066
vertex 1.00480272983443 3.73668953958161 3.20028631844296
endloop
endfacet
facet normal 0.991444861373796 -0.0 -0.130526192220164
outer loop
vertex 1.07995877913727 3.73668953958161 3.77115318903066
vertex 1.00480272983443 24.4706095395817 3.20028631844296
vertex 1.07995877913727 19.7706095395817 3.77115318903066
endloop
endfacet
facet normal 0.991444861373796 -0.0 -0.130526192220164
outer loop
vertex 1.07995877913727 19.7706095395817 3.77115318903066
vertex 1.00480272983443 24.4706095395817 3.20028631844296
vertex 1.07995877913727 24.4706095395817 3.77115318903066
endloop
endfacet
facet normal 0.991444861373796 -0.0 0.130526192220164
outer loop
vertex 1.07995877913727 19.7706095395817 4.86448780335197
vertex 1.00480272983443 3.73668953958161 5.43535467393967
vertex 1.07995877913727 3.73668953958161 4.86448780335197
endloop
endfacet
facet normal 0.991444861373796 -0.0 0.130526192220164
outer loop
vertex 1.00480272983443 3.73668953958161 5.43535467393967
vertex 1.07995877913727 19.7706095395817 4.86448780335197
vertex 1.00480272983443 24.4706095395817 5.43535467393967
endloop
endfacet
facet normal 0.991444861373796 -0.0 0.130526192220164
outer loop
vertex 1.00480272983443 24.4706095395817 5.43535467393967
vertex 1.07995877913727 19.7706095395817 4.86448780335197
vertex 1.07995877913727 24.4706095395817 4.86448780335197
endloop
endfacet
facet normal 0.923879532511261 -0.0 0.382683432365151
outer loop
vertex 1.00480272983443 24.4706095395817 5.43535467393967
vertex 0.573450637965674 3.73668953958161 6.47673074428703
vertex 1.00480272983443 3.73668953958161 5.43535467393967
endloop
endfacet
facet normal 0.923879532511261 -0.0 0.382683432365151
outer loop
vertex 0.573450637965674 3.73668953958161 6.47673074428703
vertex 1.00480272983443 24.4706095395817 5.43535467393967
vertex 0.573450637965674 24.4706095395817 6.47673074428703
endloop
endfacet
facet normal 0.793353340291277 -0.0 0.608761429008666
outer loop
vertex 0.573450637965674 24.4706095395817 6.47673074428703
vertex -0.112731447913913 3.73668953958161 7.37098064899454
vertex 0.573450637965674 3.73668953958161 6.47673074428703
endloop
endfacet
facet normal 0.793353340291277 -0.0 0.608761429008666
outer loop
vertex -0.112731447913913 3.73668953958161 7.37098064899454
vertex 0.573450637965674 24.4706095395817 6.47673074428703
vertex -0.112731447913913 24.4706095395817 7.37098064899454
endloop
endfacet
facet normal 0.608761429008761 -0.0 0.793353340291204
outer loop
vertex -0.112731447913913 3.73668953958161 7.37098064899454
vertex -1.00698135262134 24.4706095395817 8.05716273487423
vertex -1.00698135262134 3.73668953958161 8.05716273487423
endloop
endfacet
facet normal 0.608761429008761 -0.0 0.793353340291204
outer loop
vertex -1.00698135262134 24.4706095395817 8.05716273487423
vertex -0.112731447913913 3.73668953958161 7.37098064899454
vertex -0.112731447913913 24.4706095395817 7.37098064899454
endloop
endfacet
facet normal 0.382683432365075 -0.0 0.923879532511293
outer loop
vertex -1.00698135262134 3.73668953958161 8.05716273487423
vertex -2.04835742296872 24.4706095395817 8.4885148267429
vertex -2.04835742296872 3.73668953958161 8.4885148267429
endloop
endfacet
facet normal 0.382683432365075 -0.0 0.923879532511293
outer loop
vertex -2.04835742296872 24.4706095395817 8.4885148267429
vertex -1.00698135262134 3.73668953958161 8.05716273487423
vertex -1.00698135262134 24.4706095395817 8.05716273487423
endloop
endfacet
facet normal 0.13052619222005 -0.0 0.991444861373811
outer loop
vertex -2.04835742296872 3.73668953958161 8.4885148267429
vertex -3.16589160071711 24.4706095395817 8.63564099238275
vertex -3.16589160071711 3.73668953958161 8.63564099238275
endloop
endfacet
facet normal 0.13052619222005 -0.0 0.991444861373811
outer loop
vertex -3.16589160071711 24.4706095395817 8.63564099238275
vertex -2.04835742296872 3.73668953958161 8.4885148267429
vertex -2.04835742296872 24.4706095395817 8.4885148267429
endloop
endfacet
facet normal -0.130526192220066 -0.0 0.991444861373809
outer loop
vertex -3.16589160071711 3.73668953958161 8.63564099238275
vertex -4.28342577846536 24.4706095395817 8.4885148267429
vertex -4.28342577846536 3.73668953958161 8.4885148267429
endloop
endfacet
facet normal -0.130526192220066 -0.0 0.991444861373809
outer loop
vertex -4.28342577846536 24.4706095395817 8.4885148267429
vertex -3.16589160071711 3.73668953958161 8.63564099238275
vertex -3.16589160071711 24.4706095395817 8.63564099238275
endloop
endfacet
facet normal -0.382683432365004 -0.0 0.923879532511322
outer loop
vertex -4.28342577846536 3.73668953958161 8.4885148267429
vertex -5.32480184881297 24.4706095395817 8.05716273487423
vertex -5.32480184881297 3.73668953958161 8.05716273487423
endloop
endfacet
facet normal -0.382683432365004 -0.0 0.923879532511322
outer loop
vertex -5.32480184881297 24.4706095395817 8.05716273487423
vertex -4.28342577846536 3.73668953958161 8.4885148267429
vertex -4.28342577846536 24.4706095395817 8.4885148267429
endloop
endfacet
facet normal -0.608761429008815 -0.0 0.793353340291163
outer loop
vertex -5.32480184881297 3.73668953958161 8.05716273487423
vertex -6.21905175352026 24.4706095395817 7.37098064899455
vertex -6.21905175352026 3.73668953958161 7.37098064899455
endloop
endfacet
facet normal -0.608761429008815 -0.0 0.793353340291163
outer loop
vertex -6.21905175352026 24.4706095395817 7.37098064899455
vertex -5.32480184881297 3.73668953958161 8.05716273487423
vertex -5.32480184881297 24.4706095395817 8.05716273487423
endloop
endfacet
facet normal -0.793353340291192 1.12236354546129e-015 0.608761429008776
outer loop
vertex -6.21905175352026 24.4706095395817 7.37098064899455
vertex -6.89785153423196 3.73668953958161 6.48635155169217
vertex -6.21905175352026 3.73668953958161 7.37098064899455
endloop
endfacet
facet normal -0.793353340291192 1.12236354546129e-015 0.608761429008776
outer loop
vertex -6.89785153423196 3.73668953958161 6.48635155169217
vertex -6.21905175352026 24.4706095395817 7.37098064899455
vertex -6.90523383940002 24.4706095395817 6.47673074428703
endloop
endfacet
facet normal -0.923346170924113 -9.73665779624102e-005 0.38396853928353
outer loop
vertex -6.90523383940002 24.4706095395817 6.47673074428703
vertex -7.33658593126878 3.73668953958161 5.43535467393968
vertex -6.89785153423196 3.73668953958161 6.48635155169217
endloop
endfacet
facet normal -0.923346170924113 -9.73665779624102e-005 0.38396853928353
outer loop
vertex -7.33658593126878 3.73668953958161 5.43535467393968
vertex -6.90523383940002 24.4706095395817 6.47673074428703
vertex -7.33658593126878 24.4706095395817 5.43535467393968
endloop
endfacet
facet normal -0.991444861373808 0.0 0.130526192220069
outer loop
vertex -7.33658593126878 24.4706095395817 5.43535467393968
vertex -7.48371209690865 3.73668953958161 4.31782049619131
vertex -7.33658593126878 3.73668953958161 5.43535467393968
endloop
endfacet
facet normal -0.991444861373808 0.0 0.130526192220069
outer loop
vertex -7.48371209690865 3.73668953958161 4.31782049619131
vertex -7.33658593126878 24.4706095395817 5.43535467393968
vertex -7.48371209690865 24.4706095395817 4.31782049619131
endloop
endfacet
facet normal -0.991444861373808 0.0 -0.130526192220071
outer loop
vertex -7.48371209690865 24.4706095395817 4.31782049619131
vertex -7.33658593126878 3.73668953958161 3.20028631844297
vertex -7.48371209690865 3.73668953958161 4.31782049619131
endloop
endfacet
facet normal -0.991444861373808 0.0 -0.130526192220071
outer loop
vertex -7.33658593126878 3.73668953958161 3.20028631844297
vertex -7.48371209690865 24.4706095395817 4.31782049619131
vertex -7.33658593126878 24.4706095395817 3.20028631844297
endloop
endfacet
facet normal -0.923879532511261 0.0 -0.382683432365153
outer loop
vertex -7.33658593126878 24.4706095395817 3.20028631844297
vertex -6.90523383940002 3.73668953958161 2.15891024809561
vertex -7.33658593126878 3.73668953958161 3.20028631844297
endloop
endfacet
facet normal -0.923879532511261 0.0 -0.382683432365153
outer loop
vertex -6.90523383940002 3.73668953958161 2.15891024809561
vertex -7.33658593126878 24.4706095395817 3.20028631844297
vertex -6.90523383940002 24.4706095395817 2.15891024809561
endloop
endfacet
facet normal -0.793353340291201 0.0 -0.608761429008765
outer loop
vertex -6.90523383940002 24.4706095395817 2.15891024809561
vertex -6.21905175352026 3.73668953958161 1.2646603433881
vertex -6.90523383940002 3.73668953958161 2.15891024809561
endloop
endfacet
facet normal -0.793353340291201 0.0 -0.608761429008765
outer loop
vertex -6.21905175352026 3.73668953958161 1.2646603433881
vertex -6.90523383940002 24.4706095395817 2.15891024809561
vertex -6.21905175352026 24.4706095395817 1.2646603433881
endloop
endfacet
facet normal -0.608761429008815 0.0 -0.793353340291163
outer loop
vertex -5.32480184881297 24.4706095395817 0.578478257508413
vertex -6.21905175352026 3.73668953958161 1.2646603433881
vertex -6.21905175352026 24.4706095395817 1.2646603433881
endloop
endfacet
facet normal -0.608761429008815 0.0 -0.793353340291163
outer loop
vertex -6.21905175352026 3.73668953958161 1.2646603433881
vertex -5.32480184881297 24.4706095395817 0.578478257508413
vertex -5.32480184881297 3.73668953958161 0.578478257508413
endloop
endfacet
facet normal -0.382683432365011 0.0 -0.923879532511319
outer loop
vertex -4.28342577846536 24.4706095395817 0.147126165639739
vertex -5.32480184881297 3.73668953958161 0.578478257508413
vertex -5.32480184881297 24.4706095395817 0.578478257508413
endloop
endfacet
facet normal -0.382683432365011 0.0 -0.923879532511319
outer loop
vertex -5.32480184881297 3.73668953958161 0.578478257508413
vertex -4.28342577846536 24.4706095395817 0.147126165639739
vertex -4.28342577846536 3.73668953958161 0.147126165639739
endloop
endfacet
facet normal -0.130526192220064 0.0 -0.991444861373809
outer loop
vertex -3.16589160071711 24.4706095395817 -1.09554569860393e-013
vertex -4.28342577846536 3.73668953958161 0.147126165639739
vertex -4.28342577846536 24.4706095395817 0.147126165639739
endloop
endfacet
facet normal -0.130526192220064 0.0 -0.991444861373809
outer loop
vertex -4.28342577846536 3.73668953958161 0.147126165639739
vertex -3.16589160071711 24.4706095395817 -1.09554569860393e-013
vertex -3.16589160071711 3.73668953958161 -1.09554569860393e-013
endloop
endfacet
facet normal 2.19761889162116e-016 1.0 9.37271322423605e-017
outer loop
vertex 1.07995877913727 3.73668953958161 8.99359999999989
vertex 4.15995877913739 3.73668953958161 6.48635155169217
vertex 1.07995877913727 3.73668953958161 6.48635155169217
endloop
endfacet
facet normal 2.19761889162116e-016 1.0 9.37271322423605e-017
outer loop
vertex 4.15995877913739 3.73668953958161 6.48635155169217
vertex 1.07995877913727 3.73668953958161 8.99359999999989
vertex 4.15995877913739 3.73668953958161 8.99359999999989
endloop
endfacet
facet normal -0.0 1.0 -0.0
outer loop
vertex -7.53055144545504 3.73668953958161 8.99359999999989
vertex -6.89785153423196 3.73668953958161 6.48635155169217
vertex -7.53055144545504 3.73668953958161 6.48635155169217
endloop
endfacet
facet normal -0.0 1.0 -0.0
outer loop
vertex -6.89785153423196 3.73668953958161 6.48635155169217
vertex -7.53055144545504 3.73668953958161 8.99359999999989
vertex -6.21905175352026 3.73668953958161 7.37098064899455
endloop
endfacet
facet normal -0.0 1.0 -0.0
outer loop
vertex -6.21905175352026 3.73668953958161 7.37098064899455
vertex -7.53055144545504 3.73668953958161 8.99359999999989
vertex -5.32480184881297 3.73668953958161 8.05716273487423
endloop
endfacet
facet normal -0.0 1.0 -0.0
outer loop
vertex -5.32480184881297 3.73668953958161 8.05716273487423
vertex -7.53055144545504 3.73668953958161 8.99359999999989
vertex -4.28342577846536 3.73668953958161 8.4885148267429
endloop
endfacet
facet normal -0.0 1.0 -0.0
outer loop
vertex -4.28342577846536 3.73668953958161 8.4885148267429
vertex -7.53055144545504 3.73668953958161 8.99359999999989
vertex -3.16589160071711 3.73668953958161 8.63564099238275
endloop
endfacet
facet normal -0.0 1.0 -0.0
outer loop
vertex -0.112731447913913 3.73668953958161 7.37098064899454
vertex 1.07995877913727 3.73668953958161 6.48635155169217
vertex 0.573450637965674 3.73668953958161 6.47673074428703
endloop
endfacet
facet normal -0.0 1.0 -0.0
outer loop
vertex 1.07995877913727 3.73668953958161 6.48635155169217
vertex -0.112731447913913 3.73668953958161 7.37098064899454
vertex 1.07995877913727 3.73668953958161 8.99359999999989
endloop
endfacet
facet normal -0.0 1.0 -0.0
outer loop
vertex 1.07995877913727 3.73668953958161 8.99359999999989
vertex -0.112731447913913 3.73668953958161 7.37098064899454
vertex -1.00698135262134 3.73668953958161 8.05716273487423
endloop
endfacet
facet normal -0.0 1.0 -0.0
outer loop
vertex 1.07995877913727 3.73668953958161 8.99359999999989
vertex -1.00698135262134 3.73668953958161 8.05716273487423
vertex -2.04835742296872 3.73668953958161 8.4885148267429
endloop
endfacet
facet normal -0.0 1.0 -0.0
outer loop
vertex 1.07995877913727 3.73668953958161 8.99359999999989
vertex -2.04835742296872 3.73668953958161 8.4885148267429
vertex -3.16589160071711 3.73668953958161 8.63564099238275
endloop
endfacet
facet normal -0.0 1.0 -0.0
outer loop
vertex 1.07995877913727 3.73668953958161 8.99359999999989
vertex -3.16589160071711 3.73668953958161 8.63564099238275
vertex -7.53055144545504 3.73668953958161 8.99359999999989
endloop
endfacet
facet normal -0.0 1.0 -0.0
outer loop
vertex 1.07995877913727 3.73668953958161 4.86448780335197
vertex 1.15192889547444 3.73668953958161 4.31782049619131
vertex 1.07995877913727 3.73668953958161 3.77115318903066
endloop
endfacet
facet normal -0.0 1.0 -0.0
outer loop
vertex -6.89785153423196 3.73668953958161 6.48635155169217
vertex -0.112731447913913 3.73668953958161 7.37098064899454
vertex 0.573450637965674 3.73668953958161 6.47673074428703
endloop
endfacet
facet normal -0.0 1.0 -0.0
outer loop
vertex -0.112731447913913 3.73668953958161 7.37098064899454
vertex -6.89785153423196 3.73668953958161 6.48635155169217
vertex -6.21905175352026 3.73668953958161 7.37098064899455
endloop
endfacet
facet normal -0.0 1.0 -0.0
outer loop
vertex -0.112731447913913 3.73668953958161 7.37098064899454
vertex -6.21905175352026 3.73668953958161 7.37098064899455
vertex -1.00698135262134 3.73668953958161 8.05716273487423
endloop
endfacet
facet normal -0.0 1.0 -0.0
outer loop
vertex -1.00698135262134 3.73668953958161 8.05716273487423
vertex -6.21905175352026 3.73668953958161 7.37098064899455
vertex -5.32480184881297 3.73668953958161 8.05716273487423
endloop
endfacet
facet normal -0.0 1.0 -0.0
outer loop
vertex -1.00698135262134 3.73668953958161 8.05716273487423
vertex -5.32480184881297 3.73668953958161 8.05716273487423
vertex -4.28342577846536 3.73668953958161 8.4885148267429
endloop
endfacet
facet normal -0.0 1.0 -0.0
outer loop
vertex -1.00698135262134 3.73668953958161 8.05716273487423
vertex -4.28342577846536 3.73668953958161 8.4885148267429
vertex -2.04835742296872 3.73668953958161 8.4885148267429
endloop
endfacet
facet normal -0.0 1.0 -0.0
outer loop
vertex -2.04835742296872 3.73668953958161 8.4885148267429
vertex -4.28342577846536 3.73668953958161 8.4885148267429
vertex -3.16589160071711 3.73668953958161 8.63564099238275
endloop
endfacet
facet normal -0.0 1.0 -0.0
outer loop
vertex -7.53055144545504 3.73668953958161 -1.09554569860393e-013
vertex -4.28342577846536 3.73668953958161 0.147126165639739
vertex -3.16589160071711 3.73668953958161 -1.09554569860393e-013
endloop
endfacet
facet normal -0.0 1.0 -0.0
outer loop
vertex -4.28342577846536 3.73668953958161 0.147126165639739
vertex -7.53055144545504 3.73668953958161 -1.09554569860393e-013
vertex -5.32480184881297 3.73668953958161 0.578478257508413
endloop
endfacet
facet normal -0.0 1.0 -0.0
outer loop
vertex -5.32480184881297 3.73668953958161 0.578478257508413
vertex -7.53055144545504 3.73668953958161 -1.09554569860393e-013
vertex -6.21905175352026 3.73668953958161 1.2646603433881
endloop
endfacet
facet normal -0.0 1.0 -0.0
outer loop
vertex -6.21905175352026 3.73668953958161 1.2646603433881
vertex -7.53055144545504 3.73668953958161 -1.09554569860393e-013
vertex -6.90523383940002 3.73668953958161 2.15891024809561
endloop
endfacet
facet normal -0.0 1.0 -0.0
outer loop
vertex -6.90523383940002 3.73668953958161 2.15891024809561
vertex -7.53055144545504 3.73668953958161 -1.09554569860393e-013
vertex -7.33658593126878 3.73668953958161 3.20028631844297
endloop
endfacet
facet normal -0.0 1.0 -0.0
outer loop
vertex -7.33658593126878 3.73668953958161 3.20028631844297
vertex -7.53055144545504 3.73668953958161 -1.09554569860393e-013
vertex -7.48371209690865 3.73668953958161 4.31782049619131
endloop
endfacet
facet normal -0.0 1.0 -0.0
outer loop
vertex -7.48371209690865 3.73668953958161 4.31782049619131
vertex -7.53055144545504 3.73668953958161 -1.09554569860393e-013
vertex -7.53055144545504 3.73668953958161 6.48635155169217
endloop
endfacet
facet normal -0.0 1.0 -0.0
outer loop
vertex -7.48371209690865 3.73668953958161 4.31782049619131
vertex -7.53055144545504 3.73668953958161 6.48635155169217
vertex -7.33658593126878 3.73668953958161 5.43535467393968
endloop
endfacet
facet normal -0.0 1.0 -0.0
outer loop
vertex -7.33658593126878 3.73668953958161 5.43535467393968
vertex -7.53055144545504 3.73668953958161 6.48635155169217
vertex -6.89785153423196 3.73668953958161 6.48635155169217
endloop
endfacet
facet normal -0.0 1.0 -0.0
outer loop
vertex 1.00480272983443 3.73668953958161 5.43535467393967
vertex 1.07995877913727 3.73668953958161 6.48635155169217
vertex 1.07995877913727 3.73668953958161 4.86448780335197
endloop
endfacet
facet normal -0.0 1.0 -0.0
outer loop
vertex 1.07995877913727 3.73668953958161 6.48635155169217
vertex 1.00480272983443 3.73668953958161 5.43535467393967
vertex 0.573450637965674 3.73668953958161 6.47673074428703
endloop
endfacet
facet normal -0.0 1.0 -0.0
outer loop
vertex -4.28342577846536 3.73668953958161 0.147126165639739
vertex -2.04835742296872 3.73668953958161 0.147126165639738
vertex -3.16589160071711 3.73668953958161 -1.09554569860393e-013
endloop
endfacet
facet normal -0.0 1.0 -0.0
outer loop
vertex -2.04835742296872 3.73668953958161 0.147126165639738
vertex -4.28342577846536 3.73668953958161 0.147126165639739
vertex -1.00698135262134 3.73668953958161 0.578478257508412
endloop
endfacet
facet normal -0.0 1.0 -0.0
outer loop
vertex -1.00698135262134 3.73668953958161 0.578478257508412
vertex -4.28342577846536 3.73668953958161 0.147126165639739
vertex -5.32480184881297 3.73668953958161 0.578478257508413
endloop
endfacet
facet normal -0.0 1.0 -0.0
outer loop
vertex -1.00698135262134 3.73668953958161 0.578478257508412
vertex -5.32480184881297 3.73668953958161 0.578478257508413
vertex -0.112731447913913 3.73668953958161 1.2646603433881
endloop
endfacet
facet normal -0.0 1.0 -0.0
outer loop
vertex -0.112731447913913 3.73668953958161 1.2646603433881
vertex -5.32480184881297 3.73668953958161 0.578478257508413
vertex -6.21905175352026 3.73668953958161 1.2646603433881
endloop
endfacet
facet normal -0.0 1.0 -0.0
outer loop
vertex -0.112731447913913 3.73668953958161 1.2646603433881
vertex -6.21905175352026 3.73668953958161 1.2646603433881
vertex 0.573450637965674 3.73668953958161 2.15891024809561
endloop
endfacet
facet normal -0.0 1.0 -0.0
outer loop
vertex 0.573450637965674 3.73668953958161 2.15891024809561
vertex -6.21905175352026 3.73668953958161 1.2646603433881
vertex -6.90523383940002 3.73668953958161 2.15891024809561
endloop
endfacet
facet normal -0.0 1.0 -0.0
outer loop
vertex 0.573450637965674 3.73668953958161 2.15891024809561
vertex -6.90523383940002 3.73668953958161 2.15891024809561
vertex 1.00480272983443 3.73668953958161 3.20028631844296
endloop
endfacet
facet normal -0.0 1.0 -0.0
outer loop
vertex 1.00480272983443 3.73668953958161 3.20028631844296
vertex -6.90523383940002 3.73668953958161 2.15891024809561
vertex -7.33658593126878 3.73668953958161 3.20028631844297
endloop
endfacet
facet normal -0.0 1.0 -0.0
outer loop
vertex 1.00480272983443 3.73668953958161 3.20028631844296
vertex -7.33658593126878 3.73668953958161 3.20028631844297
vertex 1.07995877913727 3.73668953958161 3.77115318903066
endloop
endfacet
facet normal -0.0 1.0 -0.0
outer loop
vertex 1.07995877913727 3.73668953958161 3.77115318903066
vertex -7.33658593126878 3.73668953958161 3.20028631844297
vertex -7.48371209690865 3.73668953958161 4.31782049619131
endloop
endfacet
facet normal -0.0 1.0 -0.0
outer loop
vertex 1.07995877913727 3.73668953958161 3.77115318903066
vertex -7.48371209690865 3.73668953958161 4.31782049619131
vertex 1.07995877913727 3.73668953958161 4.86448780335197
endloop
endfacet
facet normal -0.0 1.0 -0.0
outer loop
vertex 1.07995877913727 3.73668953958161 4.86448780335197
vertex -7.48371209690865 3.73668953958161 4.31782049619131
vertex -7.33658593126878 3.73668953958161 5.43535467393968
endloop
endfacet
facet normal -0.0 1.0 -0.0
outer loop
vertex 1.07995877913727 3.73668953958161 4.86448780335197
vertex -7.33658593126878 3.73668953958161 5.43535467393968
vertex 1.00480272983443 3.73668953958161 5.43535467393967
endloop
endfacet
facet normal -0.0 1.0 -0.0
outer loop
vertex 1.00480272983443 3.73668953958161 5.43535467393967
vertex -7.33658593126878 3.73668953958161 5.43535467393968
vertex 0.573450637965674 3.73668953958161 6.47673074428703
endloop
endfacet
facet normal -0.0 1.0 -0.0
outer loop
vertex 0.573450637965674 3.73668953958161 6.47673074428703
vertex -7.33658593126878 3.73668953958161 5.43535467393968
vertex -6.89785153423196 3.73668953958161 6.48635155169217
endloop
endfacet
facet normal 1.0 -0.0 -0.0
outer loop
vertex -7.53055144545504 19.7706095395817 -1.09554569860393e-013
vertex -7.53055144545504 3.73668953958161 6.48635155169217
vertex -7.53055144545504 3.73668953958161 -1.09554569860393e-013
endloop
endfacet
facet normal 1.0 -0.0 -0.0
outer loop
vertex -7.53055144545504 3.73668953958161 6.48635155169217
vertex -7.53055144545504 19.7706095395817 -1.09554569860393e-013
vertex -7.53055144545504 19.7706095395817 6.48635155169217
endloop
endfacet
facet normal -1.0 0.0 0.0
outer loop
vertex 1.07995877913727 19.7706095395817 6.48635155169217
vertex 1.07995877913727 3.73668953958161 4.86448780335197
vertex 1.07995877913727 3.73668953958161 6.48635155169217
endloop
endfacet
facet normal -1.0 0.0 0.0
outer loop
vertex 1.07995877913727 3.73668953958161 4.86448780335197
vertex 1.07995877913727 19.7706095395817 6.48635155169217
vertex 1.07995877913727 19.7706095395817 4.86448780335197
endloop
endfacet
facet normal -1.0 0.0 0.0
outer loop
vertex 1.07995877913727 19.7706095395817 3.77115318903066
vertex 1.07995877913727 3.73668953958161 -1.09693163716652e-013
vertex 1.07995877913727 3.73668953958161 3.77115318903066
endloop
endfacet
facet normal -1.0 0.0 0.0
outer loop
vertex 1.07995877913727 3.73668953958161 -1.09693163716652e-013
vertex 1.07995877913727 19.7706095395817 3.77115318903066
vertex 1.07995877913727 19.7706095395817 -1.09693163716652e-013
endloop
endfacet
facet normal 0.991444861373789 -0.0 -0.130526192220214
outer loop
vertex 1.07995877913727 19.7706095395817 3.77115318903066
vertex 1.15192889547444 3.73668953958161 4.31782049619131
vertex 1.07995877913727 3.73668953958161 3.77115318903066
endloop
endfacet
facet normal 0.991444861373789 -0.0 -0.130526192220214
outer loop
vertex 1.15192889547444 3.73668953958161 4.31782049619131
vertex 1.07995877913727 19.7706095395817 3.77115318903066
vertex 1.15192889547444 19.7706095395817 4.31782049619131
endloop
endfacet
facet normal 0.991444861373789 -0.0 0.130526192220214
outer loop
vertex 1.15192889547444 19.7706095395817 4.31782049619131
vertex 1.07995877913727 3.73668953958161 4.86448780335197
vertex 1.15192889547444 3.73668953958161 4.31782049619131
endloop
endfacet
facet normal 0.991444861373789 -0.0 0.130526192220214
outer loop
vertex 1.07995877913727 3.73668953958161 4.86448780335197
vertex 1.15192889547444 19.7706095395817 4.31782049619131
vertex 1.07995877913727 19.7706095395817 4.86448780335197
endloop
endfacet
facet normal -0.0 1.0 -0.0
outer loop
vertex -7.53055144545504 19.7706095395817 6.48635155169217
vertex -7.53055144545504 19.7706095395817 -1.09554569860393e-013
vertex -59.5164714454551 19.7706095395817 -1.09554569860393e-013
endloop
endfacet
facet normal -0.123578277226422 0.0613233845713096 0.9904382120569
outer loop
vertex -59.5164714454551 19.7706095395817 -1.09554569860393e-013
vertex -9.76836122086266 15.2609974439913 6.48635155169217
vertex -7.53055144545504 19.7706095395817 6.48635155169217
endloop
endfacet
facet normal -0.123578277226422 0.0613233845713096 0.9904382120569
outer loop
vertex -9.76836122086266 15.2609974439913 6.48635155169217
vertex -59.5164714454551 19.7706095395817 -1.09554569860393e-013
vertex -15.4870812208628 3.73668953958161 6.48635155169217
endloop
endfacet
facet normal -0.123578277226422 0.0613233845713096 0.9904382120569
outer loop
vertex -9.76836122086266 15.2609974439913 6.48635155169217
vertex -15.4870812208628 3.73668953958161 6.48635155169217
vertex -11.7698563496043 11.2276042838447 6.48635155169217
endloop
endfacet
facet normal -0.321437823513438 -0.579808636896162 0.748665259108206
outer loop
vertex -15.4870812208628 3.73668953958161 6.48635155169217
vertex -59.5164714454551 19.7706095395817 -1.09554569860393e-013
vertex -15.4870812208628 -4.63867046041833 -1.09554569860393e-013
endloop
endfacet
facet normal 1.0 -0.0 -0.0
outer loop
vertex 10.0735587791373 3.73668953958161 6.48635155169217
vertex 10.0735587791373 -4.63643046041832 8.99359999999989
vertex 10.0735587791373 -4.63643046041832 -1.11512754585874e-013
endloop
endfacet
facet normal 1.0 -0.0 -0.0
outer loop
vertex 10.0735587791373 -6.91018490625883 8.99359999999989
vertex 10.0735587791373 -19.6368083020041 12.7679999999999
vertex 10.0735587791373 -19.6368083020041 8.99359999999989
endloop
endfacet
facet normal 1.0 -0.0 -0.0
outer loop
vertex 10.0735587791373 -19.6368083020041 12.7679999999999
vertex 10.0735587791373 -6.91018490625883 8.99359999999989
vertex 10.0735587791373 19.7706095395817 12.7679999999999
endloop
endfacet
facet normal 1.0 -0.0 -0.0
outer loop
vertex 10.0735587791373 19.7706095395817 12.7679999999999
vertex 10.0735587791373 -6.91018490625883 8.99359999999989
vertex 10.0735587791373 -4.63643046041832 8.99359999999989
endloop
endfacet
facet normal 1.0 -0.0 -0.0
outer loop
vertex 10.0735587791373 19.7706095395817 12.7679999999999
vertex 10.0735587791373 -4.63643046041832 8.99359999999989
vertex 10.0735587791373 3.73668953958161 6.48635155169217
endloop
endfacet
facet normal 1.0 -0.0 -0.0
outer loop
vertex 10.0735587791373 19.7706095395817 12.7679999999999
vertex 10.0735587791373 3.73668953958161 6.48635155169217
vertex 10.0735587791373 19.7706095395817 6.48635155169216
endloop
endfacet
facet normal -0.0 1.0 -0.0
outer loop
vertex 1.07995877913727 19.7706095395817 3.77115318903066
vertex 54.1221891948773 19.7706095395817 -9.91610368595773e-014
vertex 1.07995877913727 19.7706095395817 -1.09693163716652e-013
endloop
endfacet
facet normal -0.0 1.0 -0.0
outer loop
vertex 54.1221891948773 19.7706095395817 -9.91610368595773e-014
vertex 1.07995877913727 19.7706095395817 3.77115318903066
vertex 1.15192889547444 19.7706095395817 4.31782049619131
endloop
endfacet
facet normal -0.0 1.0 -0.0
outer loop
vertex 54.1221891948773 19.7706095395817 -9.91610368595773e-014
vertex 1.15192889547444 19.7706095395817 4.31782049619131
vertex 1.07995877913727 19.7706095395817 6.48635155169217
endloop
endfacet
facet normal -0.0 1.0 -0.0
outer loop
vertex 1.07995877913727 19.7706095395817 6.48635155169217
vertex 1.15192889547444 19.7706095395817 4.31782049619131
vertex 1.07995877913727 19.7706095395817 4.86448780335197
endloop
endfacet
facet normal 0.321333649376929 -0.579927232533945 0.748618120768943
outer loop
vertex 54.1221891948773 19.7706095395817 -9.91610368595773e-014
vertex 10.0735587791373 3.73668953958161 6.48635155169217
vertex 10.0735587791373 -4.63643046041832 -1.11512754585874e-013
endloop
endfacet
facet normal 5.97500990934256e-016 1.3243165855354e-016 1.0
outer loop
vertex 10.0735587791373 3.73668953958161 6.48635155169217
vertex 6.17211006532394 10.6922486662257 6.48635155169217
vertex 7.71375810488349 3.73668953958161 6.48635155169217
endloop
endfacet
facet normal 0.121101984545545 0.0679274193839561 0.990313170181517
outer loop
vertex 4.15995877913739 14.2795410464308 6.48635155169217
vertex 54.1221891948773 19.7706095395817 -9.91610368595773e-014
vertex 1.07995877913727 19.7706095395817 6.48635155169217
endloop
endfacet
facet normal 0.121101984545545 0.0679274193839561 0.990313170181517
outer loop
vertex 54.1221891948773 19.7706095395817 -9.91610368595773e-014
vertex 4.15995877913739 14.2795410464308 6.48635155169217
vertex 6.17211006532394 10.6922486662257 6.48635155169217
endloop
endfacet
facet normal 0.121101984545545 0.0679274193839561 0.990313170181517
outer loop
vertex 54.1221891948773 19.7706095395817 -9.91610368595773e-014
vertex 6.17211006532394 10.6922486662257 6.48635155169217
vertex 10.0735587791373 3.73668953958161 6.48635155169217
endloop
endfacet
facet normal -0.0 -0.487386641304292 0.873186269863493
outer loop
vertex 4.15995877913739 -32.8164914915624 6.37980779780627
vertex -9.76836122086266 -28.1337052397193 8.99359999999989
vertex -9.76836122086266 -32.8164914915624 6.37980779780627
endloop
endfacet
facet normal -0.0 -0.487386641304292 0.873186269863493
outer loop
vertex -9.76836122086266 -28.1337052397193 8.99359999999989
vertex 4.15995877913739 -32.8164914915624 6.37980779780627
vertex 4.15995877913739 -28.1337052397193 8.99359999999989
endloop
endfacet
facet normal -0.470521200911261 -0.3166778438999 -0.823604846195028
outer loop
vertex -9.76836122086266 -28.1337052397193 8.99359999999989
vertex -15.4870812208628 -19.6368083020041 8.99359999999989
vertex -9.76836122086266 -19.6368083020041 5.72652475814521
endloop
endfacet
facet normal -0.496051402318129 -3.19587968171665e-017 -0.868293156864787
outer loop
vertex -9.76836122086266 -19.6368083020041 5.72652475814521
vertex -15.4870812208628 -19.6368083020041 8.99359999999989
vertex -15.4870812208628 -4.63867046041833 8.99359999999989
endloop
endfacet
facet normal -0.934381087803501 -0.356275150347518 1.38706752991313e-015
outer loop
vertex -15.4870812208628 -4.63867046041833 8.99359999999989
vertex -9.76836122086266 -19.6368083020041 3.9255647581452
vertex -9.76836122086266 -19.6368083020041 5.72652475814521
endloop
endfacet
facet normal -1.0 0.0 0.0
outer loop
vertex -9.76836122086266 -44.2463504604183 -1.09554569860393e-013
vertex -9.76836122086266 -35.2139525907676 4.18480018150578
vertex -9.76836122086266 -4.63867046041833 -1.09554569860393e-013
endloop
endfacet
facet normal -1.0 0.0 0.0
outer loop
vertex -9.76836122086266 -35.2139525907676 4.18480018150578
vertex -9.76836122086266 -44.2463504604183 -1.09554569860393e-013
vertex -9.76836122086266 -35.5785957803258 4.83808322116685
endloop
endfacet
facet normal -1.0 0.0 0.0
outer loop
vertex -9.76836122086266 -4.63867046041833 -1.09554569860393e-013
vertex -9.76836122086266 -35.2139525907676 4.18480018150578
vertex -9.76836122086266 -19.6368083020041 3.9255647581452
endloop
endfacet
facet normal -0.835650926551863 -0.139076889711246 -0.531361597879691
outer loop
vertex -9.76836122086266 -4.63867046041833 -1.09554569860393e-013
vertex -9.76836122086266 -19.6368083020041 3.9255647581452
vertex -15.4870812208628 -4.63867046041833 8.99359999999989
endloop
endfacet
facet normal 0.0 -1.0 0.0
outer loop
vertex -15.4870812208628 -4.63867046041833 8.99359999999989
vertex -15.4870812208628 -4.63867046041833 -1.09554569860393e-013
vertex -9.76836122086266 -4.63867046041833 -1.09554569860393e-013
endloop
endfacet
facet normal -4.05974407632463e-016 -1.86117911081109e-016 1.0
outer loop
vertex 10.0735587791373 -19.6368083020041 8.99359999999989
vertex 4.15995877913739 3.73668953958161 8.99359999999989
vertex 4.15995877913739 -19.6368083020041 8.99359999999989
endloop
endfacet
facet normal -4.05974407632463e-016 -1.86117911081109e-016 1.0
outer loop
vertex 4.15995877913739 3.73668953958161 8.99359999999989
vertex 10.0735587791373 -19.6368083020041 8.99359999999989
vertex 10.0735587791373 -6.91018490625883 8.99359999999989
endloop
endfacet
facet normal 0.458647857056937 -0.316928373270356 -0.830179829575066
outer loop
vertex 10.0735587791373 -19.6368083020041 8.99359999999989
vertex 4.15995877913739 -19.6368083020041 5.72652475814521
vertex 4.15995877913739 -4.63643046041832 -1.15618625784464e-013
endloop
endfacet
facet normal 0.835555358885549 -0.0 -0.549406263376786
outer loop
vertex 4.15995877913739 -4.63643046041832 -1.15618625784464e-013
vertex 10.0735587791373 -6.91018490625883 8.99359999999989
vertex 10.0735587791373 -19.6368083020041 8.99359999999989
endloop
endfacet
facet normal 0.458315964469312 -0.318974951367888 -0.829579084302647
outer loop
vertex 10.0735587791373 -19.6368083020041 8.99359999999989
vertex 4.15995877913739 -28.1337052397193 8.99359999999989
vertex 4.15995877913739 -19.6368083020041 5.72652475814521
endloop
endfacet
facet normal 1.85610002648435e-016 -0.969495990988769 -0.245107167289546
outer loop
vertex 10.0735587791373 -6.91018490625883 8.99359999999989
vertex 4.15995877913739 -4.63643046041832 -1.15618625784464e-013
vertex 10.0735587791373 -4.63643046041832 -1.11512754585874e-013
endloop
endfacet
facet normal 1.0 -0.0 -0.0
outer loop
vertex 10.0735587791373 -4.63643046041832 8.99359999999989
vertex 10.0735587791373 -6.91018490625883 8.99359999999989
vertex 10.0735587791373 -4.63643046041832 -1.11512754585874e-013
endloop
endfacet
facet normal 0.0 -1.0 0.0
outer loop
vertex 10.0735587791373 -19.6368083020041 12.7679999999999
vertex 4.15995877913739 -19.6368083020041 8.99359999999989
vertex 10.0735587791373 -19.6368083020041 8.99359999999989
endloop
endfacet
facet normal -0.538011318182377 -1.46250179929282e-016 0.842937614244175
outer loop
vertex 10.0735587791373 -19.6368083020041 12.7679999999999
vertex 4.15995877913739 3.73668953958161 8.99359999999989
vertex 4.15995877913739 -19.6368083020041 8.99359999999989
endloop
endfacet
facet normal -0.538011318182377 -1.46250179929282e-016 0.842937614244175
outer loop
vertex 4.15995877913739 3.73668953958161 8.99359999999989
vertex 10.0735587791373 -19.6368083020041 12.7679999999999
vertex 4.15995877913739 19.7706095395817 8.9935999999999
endloop
endfacet
facet normal -0.538011318182377 -1.46250179929282e-016 0.842937614244175
outer loop
vertex 4.15995877913739 19.7706095395817 8.9935999999999
vertex 10.0735587791373 -19.6368083020041 12.7679999999999
vertex 10.0735587791373 19.7706095395817 12.7679999999999
endloop
endfacet
facet normal 0.0 0.0 -1.0
outer loop
vertex -9.76836122086266 3.73668953958161 8.99359999999989
vertex -15.4870812208628 -4.63867046041833 8.99359999999989
vertex -13.5248628047849 3.73668953958161 8.99359999999989
endloop
endfacet
facet normal 3.96753759014778e-016 3.52800842133644e-016 -1.0
outer loop
vertex 10.0735587791373 -6.91018490625883 8.99359999999989
vertex 4.15995877913739 3.73668953958161 8.99359999999989
vertex 7.71375810488349 3.73668953958161 8.99359999999989
endloop
endfacet
facet normal -1.13552456194222e-015 9.39184040466686e-018 -1.0
outer loop
vertex 10.0735587791373 19.7706095395817 6.48635155169216
vertex 6.17211006532394 10.6922486662257 6.48635155169217
vertex 4.15995877913739 19.7706095395817 6.48635155169217
endloop
endfacet
facet normal -1.13552456194222e-015 9.39184040466686e-018 -1.0
outer loop
vertex 6.17211006532394 10.6922486662257 6.48635155169217
vertex 10.0735587791373 19.7706095395817 6.48635155169216
vertex 10.0735587791373 3.73668953958161 6.48635155169217
endloop
endfacet
facet normal 2.29505917354185e-016 -1.80978645973501e-016 1.0
outer loop
vertex 7.71375810488349 3.73668953958161 6.48635155169217
vertex 4.15995877913739 14.2795410464308 6.48635155169217
vertex 4.15995877913739 3.73668953958161 6.48635155169217
endloop
endfacet
facet normal 2.29505917354185e-016 -1.80978645973501e-016 1.0
outer loop
vertex 4.15995877913739 14.2795410464308 6.48635155169217
vertex 7.71375810488349 3.73668953958161 6.48635155169217
vertex 6.17211006532394 10.6922486662257 6.48635155169217
endloop
endfacet
facet normal 0.0 0.0 -1.0
outer loop
vertex -11.7698563496043 11.2276042838447 6.48635155169217
vertex -13.5248628047849 3.73668953958161 6.48635155169217
vertex -15.4870812208628 3.73668953958161 6.48635155169217
endloop
endfacet
facet normal 0.0 0.0 -1.0
outer loop
vertex -9.76836122086266 19.7706095395817 6.48635155169217
vertex -15.4870812208628 3.73668953958161 6.48635155169217
vertex -15.4870812208628 19.7706095395817 6.48635155169217
endloop
endfacet
facet normal 0.0 0.0 -1.0
outer loop
vertex -15.4870812208628 3.73668953958161 6.48635155169217
vertex -9.76836122086266 19.7706095395817 6.48635155169217
vertex -11.7698563496043 11.2276042838447 6.48635155169217
endloop
endfacet
facet normal -4.85894886056739e-016 5.13555146155117e-016 -1.0
outer loop
vertex 6.17211006532394 10.6922486662257 6.48635155169217
vertex 4.15995877913739 14.2795410464308 6.48635155169217
vertex 4.15995877913739 19.7706095395817 6.48635155169217
endloop
endfacet
facet normal 4.95942198768473e-016 1.0 1.40590698363541e-016
outer loop
vertex 4.15995877913739 3.73668953958161 8.99359999999989
vertex 7.71375810488349 3.73668953958161 6.48635155169217
vertex 4.15995877913739 3.73668953958161 6.48635155169217
endloop
endfacet
facet normal 4.95942198768473e-016 1.0 1.40590698363541e-016
outer loop
vertex 7.71375810488349 3.73668953958161 6.48635155169217
vertex 4.15995877913739 3.73668953958161 8.99359999999989
vertex 7.71375810488349 3.73668953958161 8.99359999999989
endloop
endfacet
facet normal -1.0 -5.80658758305437e-017 -1.94992114027256e-017
outer loop
vertex 4.15995877913739 19.7706095395817 8.9935999999999
vertex 4.15995877913739 3.73668953958161 6.48635155169217
vertex 4.15995877913739 3.73668953958161 8.99359999999989
endloop
endfacet
facet normal -1.0 -5.80658758305437e-017 -1.94992114027256e-017
outer loop
vertex 4.15995877913739 3.73668953958161 6.48635155169217
vertex 4.15995877913739 19.7706095395817 8.9935999999999
vertex 4.15995877913739 14.2795410464308 6.48635155169217
endloop
endfacet
facet normal -1.0 -5.80658758305437e-017 -1.94992114027256e-017
outer loop
vertex 4.15995877913739 14.2795410464308 6.48635155169217
vertex 4.15995877913739 19.7706095395817 8.9935999999999
vertex 4.15995877913739 19.7706095395817 6.48635155169217
endloop
endfacet
facet normal -9.8754315467255e-016 -8.07370857311884e-017 1.0
outer loop
vertex 4.15995877913739 3.73668953958161 6.48635155169217
vertex 1.07995877913727 19.7706095395817 6.48635155169217
vertex 1.07995877913727 3.73668953958161 6.48635155169217
endloop
endfacet
facet normal -9.8754315467255e-016 -8.07370857311884e-017 1.0
outer loop
vertex 1.07995877913727 19.7706095395817 6.48635155169217
vertex 4.15995877913739 3.73668953958161 6.48635155169217
vertex 4.15995877913739 14.2795410464308 6.48635155169217
endloop
endfacet
facet normal 0.577937516474553 4.8065107913937e-018 0.816081017455513
outer loop
vertex -9.76836122086266 -19.6368083020041 8.99359999999989
vertex -15.4870812208628 19.7706095395817 13.0435199999999
vertex -15.4870812208628 -19.6368083020041 13.0435199999999
endloop
endfacet
facet normal 0.577937516474553 4.8065107913937e-018 0.816081017455513
outer loop
vertex -15.4870812208628 19.7706095395817 13.0435199999999
vertex -9.76836122086266 -19.6368083020041 8.99359999999989
vertex -9.76836122086266 19.7706095395817 8.99359999999989
endloop
endfacet
facet normal 0.577937516474553 4.8065107913937e-018 0.816081017455513
outer loop
vertex -9.76836122086266 19.7706095395817 8.99359999999989
vertex -9.76836122086266 -19.6368083020041 8.99359999999989
vertex -9.76836122086266 3.73668953958161 8.99359999999989
endloop
endfacet
facet normal 0.0 0.0 -1.0
outer loop
vertex -11.7698563496043 11.2276042838447 6.48635155169217
vertex -9.76836122086266 3.73668953958161 6.48635155169217
vertex -13.5248628047849 3.73668953958161 6.48635155169217
endloop
endfacet
facet normal 0.0 0.0 -1.0
outer loop
vertex -9.76836122086266 3.73668953958161 6.48635155169217
vertex -11.7698563496043 11.2276042838447 6.48635155169217
vertex -9.76836122086266 15.2609974439913 6.48635155169217
endloop
endfacet
facet normal 0.0 0.0 -1.0
outer loop
vertex -9.76836122086266 15.2609974439913 6.48635155169217
vertex -11.7698563496043 11.2276042838447 6.48635155169217
vertex -9.76836122086266 19.7706095395817 6.48635155169217
endloop
endfacet
facet normal -0.0 -0.0 1.0
outer loop
vertex -7.53055144545504 3.73668953958161 6.48635155169217
vertex -9.76836122086266 15.2609974439913 6.48635155169217
vertex -9.76836122086266 3.73668953958161 6.48635155169217
endloop
endfacet
facet normal -0.0 -0.0 1.0
outer loop
vertex -9.76836122086266 15.2609974439913 6.48635155169217
vertex -7.53055144545504 3.73668953958161 6.48635155169217
vertex -7.53055144545504 19.7706095395817 6.48635155169217
endloop
endfacet
facet normal 0.0 -1.0 0.0
outer loop
vertex -15.4870812208628 -19.6368083020041 13.0435199999999
vertex -15.4870812208628 -19.6368083020041 8.99359999999989
vertex -9.76836122086266 -19.6368083020041 8.99359999999989
endloop
endfacet
facet normal -1.0 0.0 0.0
outer loop
vertex -15.4870812208628 19.7706095395817 13.0435199999999
vertex -15.4870812208628 -19.6368083020041 8.99359999999989
vertex -15.4870812208628 -19.6368083020041 13.0435199999999
endloop
endfacet
facet normal -1.0 0.0 0.0
outer loop
vertex -15.4870812208628 -19.6368083020041 8.99359999999989
vertex -15.4870812208628 19.7706095395817 13.0435199999999
vertex -15.4870812208628 -4.63867046041833 8.99359999999989
endloop
endfacet
facet normal -1.0 0.0 0.0
outer loop
vertex -15.4870812208628 -4.63867046041833 8.99359999999989
vertex -15.4870812208628 19.7706095395817 13.0435199999999
vertex -15.4870812208628 3.73668953958161 6.48635155169217
endloop
endfacet
facet normal -1.0 0.0 0.0
outer loop
vertex -15.4870812208628 -4.63867046041833 8.99359999999989
vertex -15.4870812208628 3.73668953958161 6.48635155169217
vertex -15.4870812208628 -4.63867046041833 -1.09554569860393e-013
endloop
endfacet
facet normal -1.0 0.0 0.0
outer loop
vertex -15.4870812208628 3.73668953958161 6.48635155169217
vertex -15.4870812208628 19.7706095395817 13.0435199999999
vertex -15.4870812208628 19.7706095395817 6.48635155169217
endloop
endfacet
facet normal -0.0 -0.0 1.0
outer loop
vertex -9.76836122086266 -19.6368083020041 8.99359999999989
vertex -15.4870812208628 -4.63867046041833 8.99359999999989
vertex -15.4870812208628 -19.6368083020041 8.99359999999989
endloop
endfacet
facet normal -0.0 -0.0 1.0
outer loop
vertex -15.4870812208628 -4.63867046041833 8.99359999999989
vertex -9.76836122086266 -19.6368083020041 8.99359999999989
vertex -9.76836122086266 3.73668953958161 8.99359999999989
endloop
endfacet
facet normal 8.76950148759248e-017 -3.01757260592649e-017 1.0
outer loop
vertex 10.0735587791373 -19.6368083020041 8.99359999999989
vertex 4.15995877913739 -19.6368083020041 8.99359999999989
vertex 4.15995877913739 -28.1337052397193 8.99359999999989
endloop
endfacet
facet normal 8.76950148759248e-017 -3.01757260592649e-017 1.0
outer loop
vertex -9.76836122086266 -28.1337052397193 8.99359999999989
vertex -9.76836122086266 -19.6368083020041 8.99359999999989
vertex -15.4870812208628 -19.6368083020041 8.99359999999989
endloop
endfacet
facet normal 8.76950148759248e-017 -3.01757260592649e-017 1.0
outer loop
vertex -9.76836122086266 -19.6368083020041 8.99359999999989
vertex -9.76836122086266 -28.1337052397193 8.99359999999989
vertex 4.15995877913739 -28.1337052397193 8.99359999999989
endloop
endfacet
facet normal 8.76950148759248e-017 -3.01757260592649e-017 1.0
outer loop
vertex -9.76836122086266 -19.6368083020041 8.99359999999989
vertex 4.15995877913739 -28.1337052397193 8.99359999999989
vertex -9.76836122086266 3.73668953958161 8.99359999999989
endloop
endfacet
facet normal 8.76950148759248e-017 -3.01757260592649e-017 1.0
outer loop
vertex -9.76836122086266 3.73668953958161 8.99359999999989
vertex 4.15995877913739 -28.1337052397193 8.99359999999989
vertex -7.53055144545504 3.73668953958161 8.99359999999989
endloop
endfacet
facet normal 8.76950148759248e-017 -3.01757260592649e-017 1.0
outer loop
vertex -7.53055144545504 3.73668953958161 8.99359999999989
vertex 4.15995877913739 -28.1337052397193 8.99359999999989
vertex 1.07995877913727 3.73668953958161 8.99359999999989
endloop
endfacet
facet normal 8.76950148759248e-017 -3.01757260592649e-017 1.0
outer loop
vertex 1.07995877913727 3.73668953958161 8.99359999999989
vertex 4.15995877913739 -28.1337052397193 8.99359999999989
vertex 4.15995877913739 3.73668953958161 8.99359999999989
endloop
endfacet
facet normal 8.76950148759248e-017 -3.01757260592649e-017 1.0
outer loop
vertex 4.15995877913739 3.73668953958161 8.99359999999989
vertex 4.15995877913739 -28.1337052397193 8.99359999999989
vertex 4.15995877913739 -19.6368083020041 8.99359999999989
endloop
endfacet
facet normal -0.0 1.0 -0.0
outer loop
vertex -9.76836122086266 3.73668953958161 8.99359999999989
vertex -7.53055144545504 3.73668953958161 6.48635155169217
vertex -9.76836122086266 3.73668953958161 6.48635155169217
endloop
endfacet
facet normal -0.0 1.0 -0.0
outer loop
vertex -7.53055144545504 3.73668953958161 6.48635155169217
vertex -9.76836122086266 3.73668953958161 8.99359999999989
vertex -7.53055144545504 3.73668953958161 8.99359999999989
endloop
endfacet
facet normal -0.0 1.0 -0.0
outer loop
vertex -15.4870812208628 19.7706095395817 13.0435199999999
vertex -9.76836122086266 19.7706095395817 6.48635155169217
vertex -15.4870812208628 19.7706095395817 6.48635155169217
endloop
endfacet
facet normal -0.0 1.0 -0.0
outer loop
vertex -9.76836122086266 19.7706095395817 6.48635155169217
vertex -15.4870812208628 19.7706095395817 13.0435199999999
vertex -9.76836122086266 19.7706095395817 8.99359999999989
endloop
endfacet
facet normal 1.0 -0.0 -0.0
outer loop
vertex -9.76836122086266 15.2609974439913 6.48635155169217
vertex -9.76836122086266 3.73668953958161 8.99359999999989
vertex -9.76836122086266 3.73668953958161 6.48635155169217
endloop
endfacet
facet normal 1.0 -0.0 -0.0
outer loop
vertex -9.76836122086266 3.73668953958161 8.99359999999989
vertex -9.76836122086266 15.2609974439913 6.48635155169217
vertex -9.76836122086266 19.7706095395817 8.99359999999989
endloop
endfacet
facet normal 1.0 -0.0 -0.0
outer loop
vertex -9.76836122086266 19.7706095395817 8.99359999999989
vertex -9.76836122086266 15.2609974439913 6.48635155169217
vertex -9.76836122086266 19.7706095395817 6.48635155169217
endloop
endfacet
facet normal -0.0 1.0 -0.0
outer loop
vertex -13.5248628047849 3.73668953958161 8.99359999999989
vertex -9.76836122086266 3.73668953958161 6.48635155169217
vertex -13.5248628047849 3.73668953958161 6.48635155169217
endloop
endfacet
facet normal -0.0 1.0 -0.0
outer loop
vertex -9.76836122086266 3.73668953958161 6.48635155169217
vertex -13.5248628047849 3.73668953958161 8.99359999999989
vertex -9.76836122086266 3.73668953958161 8.99359999999989
endloop
endfacet
facet normal -1.50842147578475e-030 1.0 -2.65876555748928e-032
outer loop
vertex -4.28342577846536 24.4706095395817 0.147126165639739
vertex -2.04835742296872 24.4706095395817 0.147126165639738
vertex -3.16589160071711 24.4706095395817 -1.09554569860393e-013
endloop
endfacet
facet normal -1.50842147578475e-030 1.0 -2.65876555748928e-032
outer loop
vertex -2.04835742296872 24.4706095395817 0.147126165639738
vertex -4.28342577846536 24.4706095395817 0.147126165639739
vertex -1.00698135262134 24.4706095395817 0.578478257508412
endloop
endfacet
facet normal -1.50842147578475e-030 1.0 -2.65876555748928e-032
outer loop
vertex -1.00698135262134 24.4706095395817 0.578478257508412
vertex -4.28342577846536 24.4706095395817 0.147126165639739
vertex -5.32480184881297 24.4706095395817 0.578478257508413
endloop
endfacet
facet normal -1.50842147578475e-030 1.0 -2.65876555748928e-032
outer loop
vertex -1.00698135262134 24.4706095395817 0.578478257508412
vertex -5.32480184881297 24.4706095395817 0.578478257508413
vertex -0.112731447913913 24.4706095395817 1.2646603433881
endloop
endfacet
facet normal -1.50842147578475e-030 1.0 -2.65876555748928e-032
outer loop
vertex -0.112731447913913 24.4706095395817 1.2646603433881
vertex -5.32480184881297 24.4706095395817 0.578478257508413
vertex -6.21905175352026 24.4706095395817 1.2646603433881
endloop
endfacet
facet normal -1.50842147578475e-030 1.0 -2.65876555748928e-032
outer loop
vertex -0.112731447913913 24.4706095395817 1.2646603433881
vertex -6.21905175352026 24.4706095395817 1.2646603433881
vertex 0.573450637965674 24.4706095395817 2.15891024809561
endloop
endfacet
facet normal -1.50842147578475e-030 1.0 -2.65876555748928e-032
outer loop
vertex 0.573450637965674 24.4706095395817 2.15891024809561
vertex -6.21905175352026 24.4706095395817 1.2646603433881
vertex -6.90523383940002 24.4706095395817 2.15891024809561
endloop
endfacet
facet normal -1.50842147578475e-030 1.0 -2.65876555748928e-032
outer loop
vertex 0.573450637965674 24.4706095395817 2.15891024809561
vertex -6.90523383940002 24.4706095395817 2.15891024809561
vertex 1.00480272983443 24.4706095395817 3.20028631844296
endloop
endfacet
facet normal -1.50842147578475e-030 1.0 -2.65876555748928e-032
outer loop
vertex 1.00480272983443 24.4706095395817 3.20028631844296
vertex -6.90523383940002 24.4706095395817 2.15891024809561
vertex -7.33658593126878 24.4706095395817 3.20028631844297
endloop
endfacet
facet normal -1.50842147578475e-030 1.0 -2.65876555748928e-032
outer loop
vertex 1.00480272983443 24.4706095395817 3.20028631844296
vertex -7.33658593126878 24.4706095395817 3.20028631844297
vertex 1.07995877913727 24.4706095395817 3.77115318903066
endloop
endfacet
facet normal -1.50842147578475e-030 1.0 -2.65876555748928e-032
outer loop
vertex 1.07995877913727 24.4706095395817 3.77115318903066
vertex -7.33658593126878 24.4706095395817 3.20028631844297
vertex -7.48371209690865 24.4706095395817 4.31782049619131
endloop
endfacet
facet normal -1.50842147578475e-030 1.0 -2.65876555748928e-032
outer loop
vertex 1.07995877913727 24.4706095395817 3.77115318903066
vertex -7.48371209690865 24.4706095395817 4.31782049619131
vertex 1.15192889547444 24.4706095395817 4.31782049619131
endloop
endfacet
facet normal -1.50842147578475e-030 1.0 -2.65876555748928e-032
outer loop
vertex 1.15192889547444 24.4706095395817 4.31782049619131
vertex -7.48371209690865 24.4706095395817 4.31782049619131
vertex -7.33658593126878 24.4706095395817 5.43535467393968
endloop
endfacet
facet normal -1.50842147578475e-030 1.0 -2.65876555748928e-032
outer loop
vertex 1.15192889547444 24.4706095395817 4.31782049619131
vertex -7.33658593126878 24.4706095395817 5.43535467393968
vertex 1.07995877913727 24.4706095395817 4.86448780335197
endloop
endfacet
facet normal -1.50842147578475e-030 1.0 -2.65876555748928e-032
outer loop
vertex 1.07995877913727 24.4706095395817 4.86448780335197
vertex -7.33658593126878 24.4706095395817 5.43535467393968
vertex 1.00480272983443 24.4706095395817 5.43535467393967
endloop
endfacet
facet normal -1.50842147578475e-030 1.0 -2.65876555748928e-032
outer loop
vertex 1.00480272983443 24.4706095395817 5.43535467393967
vertex -7.33658593126878 24.4706095395817 5.43535467393968
vertex 0.573450637965674 24.4706095395817 6.47673074428703
endloop
endfacet
facet normal -1.50842147578475e-030 1.0 -2.65876555748928e-032
outer loop
vertex 0.573450637965674 24.4706095395817 6.47673074428703
vertex -7.33658593126878 24.4706095395817 5.43535467393968
vertex -6.90523383940002 24.4706095395817 6.47673074428703
endloop
endfacet
facet normal -1.50842147578475e-030 1.0 -2.65876555748928e-032
outer loop
vertex 0.573450637965674 24.4706095395817 6.47673074428703
vertex -6.90523383940002 24.4706095395817 6.47673074428703
vertex -6.21905175352026 24.4706095395817 7.37098064899455
endloop
endfacet
facet normal -1.50842147578475e-030 1.0 -2.65876555748928e-032
outer loop
vertex 0.573450637965674 24.4706095395817 6.47673074428703
vertex -6.21905175352026 24.4706095395817 7.37098064899455
vertex -0.112731447913913 24.4706095395817 7.37098064899454
endloop
endfacet
facet normal -1.50842147578475e-030 1.0 -2.65876555748928e-032
outer loop
vertex -0.112731447913913 24.4706095395817 7.37098064899454
vertex -6.21905175352026 24.4706095395817 7.37098064899455
vertex -1.00698135262134 24.4706095395817 8.05716273487423
endloop
endfacet
facet normal -1.50842147578475e-030 1.0 -2.65876555748928e-032
outer loop
vertex -1.00698135262134 24.4706095395817 8.05716273487423
vertex -6.21905175352026 24.4706095395817 7.37098064899455
vertex -5.32480184881297 24.4706095395817 8.05716273487423
endloop
endfacet
facet normal -1.50842147578475e-030 1.0 -2.65876555748928e-032
outer loop
vertex -1.00698135262134 24.4706095395817 8.05716273487423
vertex -5.32480184881297 24.4706095395817 8.05716273487423
vertex -4.28342577846536 24.4706095395817 8.4885148267429
endloop
endfacet
facet normal -1.50842147578475e-030 1.0 -2.65876555748928e-032
outer loop
vertex -1.00698135262134 24.4706095395817 8.05716273487423
vertex -4.28342577846536 24.4706095395817 8.4885148267429
vertex -2.04835742296872 24.4706095395817 8.4885148267429
endloop
endfacet
facet normal -1.50842147578475e-030 1.0 -2.65876555748928e-032
outer loop
vertex -2.04835742296872 24.4706095395817 8.4885148267429
vertex -4.28342577846536 24.4706095395817 8.4885148267429
vertex -3.16589160071711 24.4706095395817 8.63564099238275
endloop
endfacet
facet normal 0.991444861373789 1.49898710639491e-030 0.130526192220214
outer loop
vertex 1.15192889547444 24.4706095395817 4.31782049619131
vertex 1.07995877913727 19.7706095395817 4.86448780335197
vertex 1.15192889547444 19.7706095395817 4.31782049619131
endloop
endfacet
facet normal 0.991444861373789 1.49898710639491e-030 0.130526192220214
outer loop
vertex 1.07995877913727 19.7706095395817 4.86448780335197
vertex 1.15192889547444 24.4706095395817 4.31782049619131
vertex 1.07995877913727 24.4706095395817 4.86448780335197
endloop
endfacet
facet normal 0.991444861373789 1.4920463355104e-030 -0.130526192220214
outer loop
vertex 1.07995877913727 24.4706095395817 3.77115318903066
vertex 1.15192889547444 19.7706095395817 4.31782049619131
vertex 1.07995877913727 19.7706095395817 3.77115318903066
endloop
endfacet
facet normal 0.991444861373789 1.4920463355104e-030 -0.130526192220214
outer loop
vertex 1.15192889547444 19.7706095395817 4.31782049619131
vertex 1.07995877913727 24.4706095395817 3.77115318903066
vertex 1.15192889547444 24.4706095395817 4.31782049619131
endloop
endfacet
facet normal 0.0 0.0 -1.0
outer loop
vertex -8.55428122086275 -19.6368083020041 5.72652475814521
vertex -9.76836122086266 -32.4518483020041 5.72652475814521
vertex -9.76836122086266 -19.6368083020041 5.72652475814521
endloop
endfacet
facet normal 0.0 0.0 -1.0
outer loop
vertex -9.76836122086266 -32.4518483020041 5.72652475814521
vertex -8.55428122086275 -19.6368083020041 5.72652475814521
vertex -8.55428122086275 -32.4518483020041 5.72652475814521
endloop
endfacet
facet normal 0.0 -1.0 0.0
outer loop
vertex -8.55428122086275 -19.6368083020041 5.72652475814521
vertex -9.76836122086266 -19.6368083020041 3.9255647581452
vertex -8.55428122086275 -19.6368083020041 3.9255647581452
endloop
endfacet
facet normal 0.0 -1.0 0.0
outer loop
vertex -9.76836122086266 -19.6368083020041 3.9255647581452
vertex -8.55428122086275 -19.6368083020041 5.72652475814521
vertex -9.76836122086266 -19.6368083020041 5.72652475814521
endloop
endfacet
facet normal -1.0 0.0 0.0
outer loop
vertex -9.76836122086266 -28.1337052397193 8.99359999999989
vertex -9.76836122086266 -32.4518483020041 5.72652475814521
vertex -9.76836122086266 -32.8164914915624 6.37980779780627
endloop
endfacet
facet normal -1.0 0.0 0.0
outer loop
vertex -9.76836122086266 -32.4518483020041 5.72652475814521
vertex -9.76836122086266 -28.1337052397193 8.99359999999989
vertex -9.76836122086266 -19.6368083020041 5.72652475814521
endloop
endfacet
facet normal 0.0 -1.0 0.0
outer loop
vertex 4.15995877913739 -19.6368083020041 5.72652475814521
vertex 2.95259877913722 -19.6368083020041 4.18480018150578
vertex 4.15995877913739 -19.6368083020041 4.18480018150578
endloop
endfacet
facet normal 0.0 -1.0 0.0
outer loop
vertex 2.95259877913722 -19.6368083020041 4.18480018150578
vertex 4.15995877913739 -19.6368083020041 5.72652475814521
vertex 2.95259877913722 -19.6368083020041 5.72652475814521
endloop
endfacet
facet normal 0.0 0.0 -1.0
outer loop
vertex 4.15995877913739 -19.6368083020041 5.72652475814521
vertex 2.95259877913722 -32.4518483020041 5.72652475814521
vertex 2.95259877913722 -19.6368083020041 5.72652475814521
endloop
endfacet
facet normal 0.0 0.0 -1.0
outer loop
vertex 2.95259877913722 -32.4518483020041 5.72652475814521
vertex 4.15995877913739 -19.6368083020041 5.72652475814521
vertex 4.15995877913739 -32.4518483020041 5.72652475814521
endloop
endfacet
facet normal 1.0 -0.0 -0.0
outer loop
vertex 4.15995877913739 -44.2463504604183 -1.09554569860393e-013
vertex 4.15995877913739 -35.2139525907676 4.18480018150578
vertex 4.15995877913739 -35.5785957803258 4.83808322116685
endloop
endfacet
facet normal 1.0 -0.0 -0.0
outer loop
vertex 4.15995877913739 -35.2139525907676 4.18480018150578
vertex 4.15995877913739 -44.2463504604183 -1.09554569860393e-013
vertex 4.15995877913739 -4.63643046041832 -1.15618625784464e-013
endloop
endfacet
facet normal 1.0 -0.0 -0.0
outer loop
vertex 4.15995877913739 -35.2139525907676 4.18480018150578
vertex 4.15995877913739 -4.63643046041832 -1.15618625784464e-013
vertex 4.15995877913739 -19.6368083020041 4.18480018150578
endloop
endfacet
facet normal 1.0 -0.0 -0.0
outer loop
vertex 4.15995877913739 -19.6368083020041 4.18480018150578
vertex 4.15995877913739 -4.63643046041832 -1.15618625784464e-013
vertex 4.15995877913739 -19.6368083020041 5.72652475814521
endloop
endfacet
facet normal 1.0 -0.0 -0.0
outer loop
vertex 4.15995877913739 -32.4518483020041 5.72652475814521
vertex 4.15995877913739 -28.1337052397193 8.99359999999989
vertex 4.15995877913739 -32.8164914915624 6.37980779780627
endloop
endfacet
facet normal 1.0 -0.0 -0.0
outer loop
vertex 4.15995877913739 -28.1337052397193 8.99359999999989
vertex 4.15995877913739 -32.4518483020041 5.72652475814521
vertex 4.15995877913739 -19.6368083020041 5.72652475814521
endloop
endfacet
endsolid space ship
