{
    "asset" : {
        "generator" : "Khronos glTF Blender I/O v3.3.27",
        "version" : "2.0"
    },
    "scene" : 0,
    "scenes" : [
        {
            "extras" : {
                "matlib" : {
                    "lib_index" : 1,
                    "filter" : 0,
                    "cat_index" : -1,
                    "categories" : [
                        {
                            "name" : "Wood"
                        },
                        {
                            "name" : "Earth"
                        },
                        {
                            "name" : "Plastic"
                        },
                        {
                            "name" : "Ceramic"
                        },
                        {
                            "name" : "Lights"
                        },
                        {
                            "name" : "Metal"
                        },
                        {
                            "name" : "Utils"
                        },
                        {
                            "name" : "Groups"
                        },
                        {
                            "name" : "Textile"
                        },
                        {
                            "name" : "Glass"
                        },
                        {
                            "name" : "Organic"
                        },
                        {
                            "name" : "Car paint"
                        }
                    ],
                    "all_materials" : [
                        {
                            "name" : "1970_tiles",
                            "category" : "Ceramic"
                        },
                        {
                            "name" : "Anodized",
                            "category" : "Metal"
                        },
                        {
                            "name" : "Ant Snowy",
                            "category" : "Earth"
                        },
                        {
                            "name" : "Apple Juice",
                            "category" : "Glass"
                        },
                        {
                            "name" : "Basic Glass",
                            "category" : "Glass"
                        },
                        {
                            "name" : "Blaster Bolt (Red)",
                            "category" : "Lights"
                        },
                        {
                            "name" : "Building",
                            "category" : "Textile"
                        },
                        {
                            "name" : "Car Paint",
                            "category" : "Car paint"
                        },
                        {
                            "name" : "Carbon Fiber (Glossy)",
                            "category" : "Textile"
                        },
                        {
                            "name" : "Ceramic Polished",
                            "category" : "Ceramic"
                        },
                        {
                            "name" : "Chocolate Swirl",
                            "category" : "Organic"
                        },
                        {
                            "name" : "Coated Glossy",
                            "category" : "Plastic"
                        },
                        {
                            "name" : "Cranberry Juice",
                            "category" : "Glass"
                        },
                        {
                            "name" : "Crushed Velvet",
                            "category" : "Textile"
                        },
                        {
                            "name" : "Cycles_Cube_Material.001"
                        },
                        {
                            "name" : "Denim",
                            "category" : "Textile"
                        },
                        {
                            "name" : "Diamond",
                            "category" : "Glass"
                        },
                        {
                            "name" : "Facade",
                            "category" : "Glass"
                        },
                        {
                            "name" : "Fake Glass",
                            "category" : "Glass"
                        },
                        {
                            "name" : "Fake Shading",
                            "category" : "Lights"
                        },
                        {
                            "name" : "Flakes 17",
                            "category" : "Car paint"
                        },
                        {
                            "name" : "Flaky Tangelo",
                            "category" : "Car paint"
                        },
                        {
                            "name" : "Floor Wood",
                            "category" : "Wood"
                        },
                        {
                            "name" : "Fresnel",
                            "category" : "Lights"
                        },
                        {
                            "name" : "Galvanized Steel",
                            "category" : "Metal"
                        },
                        {
                            "name" : "Glass Glaze",
                            "category" : "Ceramic"
                        },
                        {
                            "name" : "Gob Stopper",
                            "category" : "Organic"
                        },
                        {
                            "name" : "Gradient Pass",
                            "category" : "Utils"
                        },
                        {
                            "name" : "Ground Brown",
                            "category" : "Earth"
                        },
                        {
                            "name" : "Invisible Light",
                            "category" : "Lights"
                        },
                        {
                            "name" : "Iridescent",
                            "category" : "Glass"
                        },
                        {
                            "name" : "Jewelry",
                            "category" : "Metal"
                        },
                        {
                            "name" : "Lemon",
                            "category" : "Organic"
                        },
                        {
                            "name" : "Marble",
                            "category" : "Glass"
                        },
                        {
                            "name" : "Metallic Paint"
                        },
                        {
                            "name" : "Molten",
                            "category" : "Earth"
                        },
                        {
                            "name" : "Mosaic",
                            "category" : "Ceramic"
                        },
                        {
                            "name" : "Node Groups",
                            "category" : "Groups"
                        },
                        {
                            "name" : "Peau Humaine",
                            "category" : "Organic"
                        },
                        {
                            "name" : "Planet Plane",
                            "category" : "Earth"
                        },
                        {
                            "name" : "Pluie sur vitre",
                            "category" : "Glass"
                        },
                        {
                            "name" : "Polished Walnut",
                            "category" : "Wood"
                        },
                        {
                            "name" : "Polystyrene Foam",
                            "category" : "Plastic"
                        },
                        {
                            "name" : "Pool Water",
                            "category" : "Glass"
                        },
                        {
                            "name" : "Raspberry",
                            "category" : "Organic"
                        },
                        {
                            "name" : "Rough Walnut",
                            "category" : "Metal"
                        },
                        {
                            "name" : "Silver Planet",
                            "category" : "Metal"
                        },
                        {
                            "name" : "Soap Bubble",
                            "category" : "Glass"
                        },
                        {
                            "name" : "Sponge",
                            "category" : "Organic"
                        },
                        {
                            "name" : "Stone Red",
                            "category" : "Earth"
                        },
                        {
                            "name" : "Tyre Rubber",
                            "category" : "Textile"
                        },
                        {
                            "name" : "Volumetric Light",
                            "category" : "Lights"
                        },
                        {
                            "name" : "Wire Musgrave",
                            "category" : "Utils"
                        },
                        {
                            "name" : "rusty_g",
                            "category" : "Metal"
                        }
                    ],
                    "materials" : [
                        {
                            "name" : "1970_tiles",
                            "category" : "Ceramic"
                        },
                        {
                            "name" : "Anodized",
                            "category" : "Metal"
                        },
                        {
                            "name" : "Ant Snowy",
                            "category" : "Earth"
                        },
                        {
                            "name" : "Apple Juice",
                            "category" : "Glass"
                        },
                        {
                            "name" : "Basic Glass",
                            "category" : "Glass"
                        },
                        {
                            "name" : "Blaster Bolt (Red)",
                            "category" : "Lights"
                        },
                        {
                            "name" : "Building",
                            "category" : "Textile"
                        },
                        {
                            "name" : "Car Paint",
                            "category" : "Car paint"
                        },
                        {
                            "name" : "Carbon Fiber (Glossy)",
                            "category" : "Textile"
                        },
                        {
                            "name" : "Ceramic Polished",
                            "category" : "Ceramic"
                        },
                        {
                            "name" : "Chocolate Swirl",
                            "category" : "Organic"
                        },
                        {
                            "name" : "Coated Glossy",
                            "category" : "Plastic"
                        },
                        {
                            "name" : "Cranberry Juice",
                            "category" : "Glass"
                        },
                        {
                            "name" : "Crushed Velvet",
                            "category" : "Textile"
                        },
                        {
                            "name" : "Cycles_Cube_Material.001",
                            "category" : ""
                        },
                        {
                            "name" : "Denim",
                            "category" : "Textile"
                        },
                        {
                            "name" : "Diamond",
                            "category" : "Glass"
                        },
                        {
                            "name" : "Facade",
                            "category" : "Glass"
                        },
                        {
                            "name" : "Fake Glass",
                            "category" : "Glass"
                        },
                        {
                            "name" : "Fake Shading",
                            "category" : "Lights"
                        },
                        {
                            "name" : "Flakes 17",
                            "category" : "Car paint"
                        },
                        {
                            "name" : "Flaky Tangelo",
                            "category" : "Car paint"
                        },
                        {
                            "name" : "Floor Wood",
                            "category" : "Wood"
                        },
                        {
                            "name" : "Fresnel",
                            "category" : "Lights"
                        },
                        {
                            "name" : "Galvanized Steel",
                            "category" : "Metal"
                        },
                        {
                            "name" : "Glass Glaze",
                            "category" : "Ceramic"
                        },
                        {
                            "name" : "Gob Stopper",
                            "category" : "Organic"
                        },
                        {
                            "name" : "Gradient Pass",
                            "category" : "Utils"
                        },
                        {
                            "name" : "Ground Brown",
                            "category" : "Earth"
                        },
                        {
                            "name" : "Invisible Light",
                            "category" : "Lights"
                        },
                        {
                            "name" : "Iridescent",
                            "category" : "Glass"
                        },
                        {
                            "name" : "Jewelry",
                            "category" : "Metal"
                        },
                        {
                            "name" : "Lemon",
                            "category" : "Organic"
                        },
                        {
                            "name" : "Marble",
                            "category" : "Glass"
                        },
                        {
                            "name" : "Metallic Paint",
                            "category" : ""
                        },
                        {
                            "name" : "Molten",
                            "category" : "Earth"
                        },
                        {
                            "name" : "Mosaic",
                            "category" : "Ceramic"
                        },
                        {
                            "name" : "Node Groups",
                            "category" : "Groups"
                        },
                        {
                            "name" : "Peau Humaine",
                            "category" : "Organic"
                        },
                        {
                            "name" : "Planet Plane",
                            "category" : "Earth"
                        },
                        {
                            "name" : "Pluie sur vitre",
                            "category" : "Glass"
                        },
                        {
                            "name" : "Polished Walnut",
                            "category" : "Wood"
                        },
                        {
                            "name" : "Polystyrene Foam",
                            "category" : "Plastic"
                        },
                        {
                            "name" : "Pool Water",
                            "category" : "Glass"
                        },
                        {
                            "name" : "Raspberry",
                            "category" : "Organic"
                        },
                        {
                            "name" : "Rough Walnut",
                            "category" : "Metal"
                        },
                        {
                            "name" : "Silver Planet",
                            "category" : "Metal"
                        },
                        {
                            "name" : "Soap Bubble",
                            "category" : "Glass"
                        },
                        {
                            "name" : "Sponge",
                            "category" : "Organic"
                        },
                        {
                            "name" : "Stone Red",
                            "category" : "Earth"
                        },
                        {
                            "name" : "Tyre Rubber",
                            "category" : "Textile"
                        },
                        {
                            "name" : "Volumetric Light",
                            "category" : "Lights"
                        },
                        {
                            "name" : "Wire Musgrave",
                            "category" : "Utils"
                        },
                        {
                            "name" : "rusty_g",
                            "category" : "Metal"
                        }
                    ],
                    "search" : "Volumetric Light",
                    "mat_index" : 51
                },
                "mat_specials" : {}
            },
            "name" : "Scene",
            "nodes" : [
                0
            ]
        }
    ],
    "nodes" : [
        {
            "extras" : {
                "ant_landscape" : {}
            },
            "mesh" : 0,
            "name" : "Plane.004",
            "scale" : [
                0.11502572894096375,
                0.11502572894096375,
                0.11502572894096375
            ]
        }
    ],
    "meshes" : [
        {
            "extras" : {
                "ms3d" : {}
            },
            "name" : "Plane",
            "primitives" : [
                {
                    "attributes" : {
                        "POSITION" : 0,
                        "NORMAL" : 1,
                        "COLOR_0" : 2
                    },
                    "indices" : 3
                },
                {
                    "attributes" : {
                        "POSITION" : 4
                    },
                    "indices" : 5,
                    "mode" : 1
                },
                {
                    "attributes" : {
                        "POSITION" : 6
                    },
                    "mode" : 0
                }
            ]
        }
    ],
    "accessors" : [
        {
            "bufferView" : 0,
            "componentType" : 5126,
            "count" : 31668,
            "max" : [
                9.105447769165039,
                1.848585605621338,
                2.316981792449951
            ],
            "min" : [
                -9.105447769165039,
                0,
                -18.21949577331543
            ],
            "type" : "VEC3"
        },
        {
            "bufferView" : 1,
            "componentType" : 5126,
            "count" : 31668,
            "type" : "VEC3"
        },
        {
            "bufferView" : 2,
            "componentType" : 5123,
            "count" : 31668,
            "normalized" : true,
            "type" : "VEC4"
        },
        {
            "bufferView" : 3,
            "componentType" : 5123,
            "count" : 51186,
            "type" : "SCALAR"
        },
        {
            "bufferView" : 4,
            "componentType" : 5126,
            "count" : 22,
            "max" : [
                4.584712982177734,
                1.5815551280975342,
                0.674420177936554
            ],
            "min" : [
                -4.584712982177734,
                0.9194374084472656,
                -3.7108583450317383
            ],
            "type" : "VEC3"
        },
        {
            "bufferView" : 5,
            "componentType" : 5123,
            "count" : 28,
            "type" : "SCALAR"
        },
        {
            "bufferView" : 6,
            "componentType" : 5126,
            "count" : 2,
            "max" : [
                1.0051651000976562,
                -1.5328617095947266,
                -6.504199981689453
            ],
            "min" : [
                -1.0051651000976562,
                -1.5328617095947266,
                -6.504199981689453
            ],
            "type" : "VEC3"
        }
    ],
    "bufferViews" : [
        {
            "buffer" : 0,
            "byteLength" : 380016,
            "byteOffset" : 0,
            "target" : 34962
        },
        {
            "buffer" : 0,
            "byteLength" : 380016,
            "byteOffset" : 380016,
            "target" : 34962
        },
        {
            "buffer" : 0,
            "byteLength" : 253344,
            "byteOffset" : 760032,
            "target" : 34962
        },
        {
            "buffer" : 0,
            "byteLength" : 102372,
            "byteOffset" : 1013376,
            "target" : 34963
        },
        {
            "buffer" : 0,
            "byteLength" : 264,
            "byteOffset" : 1115748,
            "target" : 34962
        },
        {
            "buffer" : 0,
            "byteLength" : 56,
            "byteOffset" : 1116012,
            "target" : 34963
        },
        {
            "buffer" : 0,
            "byteLength" : 24,
            "byteOffset" : 1116068,
            "target" : 34962
        }
    ],
    "buffers" : [
        {
            "byteLength" : 1116092,
            "uri" : "data:application/octet-stream;base64,"
        }
    ]
}
